<svg xmlns="http://www.w3.org/2000/svg" width="16.34" height="16.34" viewBox="0 0 16.34 16.34">
  <g id="Group_357" data-name="Group 357" transform="translate(-127.559 -57.557)">
    <path id="Path_718" data-name="Path 718" d="M142.434,69.964a.206.206,0,0,0,.267-.021l.658-.658a1.851,1.851,0,0,0,0-2.612L134.783,58.1a1.851,1.851,0,0,0-2.612,0l-.535.535a.206.206,0,0,0-.021.267,1.954,1.954,0,0,1-2.715,2.694.205.205,0,0,0-.267.02l-.535.535h0a1.851,1.851,0,0,0,0,2.612l8.577,8.6a1.851,1.851,0,0,0,2.612,0l.391-.391a.206.206,0,0,0,.02-.267,1.954,1.954,0,0,1,2.736-2.735Zm-3.188,2.859L139,73.07a1.44,1.44,0,0,1-2.036,0l-8.577-8.577a1.44,1.44,0,0,1,0-2.036l.432-.432a2.365,2.365,0,0,0,3.209-3.209l.432-.432a1.44,1.44,0,0,1,2.036,0l8.577,8.577a1.44,1.44,0,0,1,0,2.036l-.535.535a2.365,2.365,0,0,0-3.291,3.291Z" fill="#25e0b1"/>
    <path id="Path_719" data-name="Path 719" d="M266.637,193.636a2.123,2.123,0,1,0-3,3l2.139,2.139a2.123,2.123,0,1,0,3-3Zm1.851,4.854a1.707,1.707,0,0,1-2.427,0l-2.139-2.139a1.716,1.716,0,1,1,2.427-2.427l2.139,2.139a1.707,1.707,0,0,1,0,2.427Z" transform="translate(-130.476 -130.48)" fill="#25e0b1"/>
  </g>
</svg>
