<svg id="Group_454" data-name="Group 454" xmlns="http://www.w3.org/2000/svg" width="38.225" height="36.662" viewBox="0 0 38.225 36.662">
  <path id="Path_827" data-name="Path 827" d="M109,17.653a3.616,3.616,0,0,1-.863,5.035,3.534,3.534,0,0,1-3.084.517,31.125,31.125,0,0,1-4.151-2.645c-.71-.5-1.427-1-2.1-1.453a3.016,3.016,0,0,0-3.4.054L87.434,24.8a3.018,3.018,0,0,0-1.182,3.188c.2.784.434,1.621.666,2.45h0a31.686,31.686,0,0,1,1.114,4.754,3.543,3.543,0,0,1-1.515,2.793,3.619,3.619,0,0,1-5.043-.874v0s-.244-.323-.3-.43c-1.252-2.2-3.57-7.6-5.051-11.131a6.622,6.622,0,1,0,3.524-12.2L87.2,8a6.618,6.618,0,1,0,12.674.742c2.841,2.572,7.143,6.54,8.8,8.458.087.1.309.438.321.453Z" transform="translate(-72.852 -3.401)" fill="#25e0b1"/>
  <g id="Group_443" data-name="Group 443" transform="translate(0 0)">
    <path id="Path_831" data-name="Path 831" d="M109.5,15.9s-.283-.42-.4-.569l-.162-.2-.01.012C106.111,11.993,97.552,4.409,97.473,4.341l-.065-.061a.525.525,0,0,0-.051-.041A6.794,6.794,0,0,0,89.4,3.346l0,0-.149.088c-.147.087-.292.177-.431.276L75.051,13.442c-.153.108-.3.225-.44.346-.1.083-.192.17-.271.245a.467.467,0,0,0-.057.051,6.855,6.855,0,0,0-1.542,7.659l.012.039a.546.546,0,0,0,.031.08c1.074,2.63,4.715,11.454,6.49,14.575.071.121.269.39.385.545A5.008,5.008,0,0,0,86.644,38.2a5.039,5.039,0,0,0,2.126-4.007,30.658,30.658,0,0,0-1.163-5.086c-.23-.819-.459-1.644-.658-2.417A1.592,1.592,0,0,1,87.579,25l7.968-5.635a1.589,1.589,0,0,1,1.8-.033c.652.434,1.338.915,2.019,1.393l.054.038A30.224,30.224,0,0,0,103.9,23.58a4.962,4.962,0,0,0,4.381-.691A5.034,5.034,0,0,0,109.5,15.9Zm-5.017,6.17a31.144,31.144,0,0,1-4.129-2.632c-.711-.5-1.429-1-2.109-1.457a3.209,3.209,0,0,0-3.634.058L86.64,23.678a3.208,3.208,0,0,0-1.263,3.408c.2.779.43,1.61.668,2.463a31.732,31.732,0,0,1,1.105,4.683,3.387,3.387,0,0,1-3.974,3.2,3.409,3.409,0,0,1-2.17-1.342l-.042-.061s-.231-.306-.289-.408c-1.143-2.006-3.2-6.723-4.8-10.54a6.83,6.83,0,1,0,3.712-12.868l6.565-4.644a6.825,6.825,0,1,0,13.367.787c2.608,2.368,6.735,6.184,8.331,8.028.072.084.24.336.308.438l.068.1a3.416,3.416,0,0,1-.88,4.651A3.345,3.345,0,0,1,104.48,22.073ZM83.335,15.954A5.259,5.259,0,0,1,74.8,22.1a5.281,5.281,0,0,1,.646-6.887c.069-.065.14-.128.21-.189.109-.091.22-.181.339-.266a5.259,5.259,0,0,1,7.341,1.2Zm10.3-11.8a5.192,5.192,0,1,1-.892-.076A5.241,5.241,0,0,1,93.637,4.151Z" transform="translate(-72.179 -2.452)"/>
    <path id="Path_832" data-name="Path 832" d="M78.519,17.071a.8.8,0,0,0-.6.137L75.948,18.6a.808.808,0,0,0-.193,1.128l.925,1.307-1.311.927a.689.689,0,0,0-.166.173.714.714,0,0,0-.08.13.8.8,0,0,0,.057.822l1.391,1.966a.81.81,0,0,0,1.069.231l.045-.028.013-.008,1.3-.926.924,1.3A.808.808,0,0,0,81,25.86h.146v-.1l1.88-1.33a.81.81,0,0,0,.231-1.069v-.068l-.068-.034L82.292,22l1.3-.923a.807.807,0,0,0,.194-1.128L82.4,17.978a.81.81,0,0,0-1.128-.193l-1.3.923-.924-1.3A.8.8,0,0,0,78.519,17.071ZM80.7,21.144a.81.81,0,0,0-.193,1.128l.924,1.306-.643.455-.924-1.306a.81.81,0,0,0-1.128-.193l-1.306.924-.458-.647,1.3-.924a.811.811,0,0,0,.232-1.069l-.028-.044-.009-.014-.924-1.307L78.188,19l.923,1.3a.811.811,0,0,0,1.128.194l1.306-.924.457.647Z" transform="translate(-72.667 -4.95)"/>
    <path id="Path_833" data-name="Path 833" d="M93.985,11.109a1.412,1.412,0,1,0,.914.575A1.4,1.4,0,0,0,93.985,11.109Z" transform="translate(-75.625 -3.929)"/>
    <path id="Path_834" data-name="Path 834" d="M98.57,14.756a1.411,1.411,0,0,0,1.39-2.206l-.169.12h0l.168-.12a1.41,1.41,0,1,0-1.389,2.205Z" transform="translate(-76.491 -4.077)"/>
    <path id="Path_835" data-name="Path 835" d="M93.463,8.252a1.4,1.4,0,0,0,.913.576,1.489,1.489,0,0,0,.241.021,1.413,1.413,0,1,0-1.154-.6Z" transform="translate(-75.774 -3.063)"/>
    <path id="Path_836" data-name="Path 836" d="M99.677,9.716a1.41,1.41,0,1,0-1.154-.6A1.407,1.407,0,0,0,99.677,9.716Z" transform="translate(-76.639 -3.212)"/>
  </g>
</svg>
