<svg xmlns="http://www.w3.org/2000/svg" width="41.342" height="36.409" viewBox="0 0 41.342 36.409">
  <g id="Group_491" data-name="Group 491" transform="translate(-94.58 -345.831)">
    <g id="Group_442" data-name="Group 442" transform="translate(94.58 345.831)">
      <path id="Path_828" data-name="Path 828" d="M-51.145,38.419a1.651,1.651,0,0,1-1.753.3c-3.581-1.517-12.079-5.981-13.624-14.626L-67.84,16.73a1.6,1.6,0,0,1,1.311-1.848,1.631,1.631,0,0,1,.284-.022,1.749,1.749,0,0,1,.271.021A29.575,29.575,0,0,0-47.1,11.491a1.623,1.623,0,0,1,2.2.66,1.633,1.633,0,0,1,.166.467l1.333,7.459c1.545,8.647-4.9,15.707-7.741,18.341Z" transform="translate(69.58 -4.146)" fill="#25e0b1"/>
      <path id="Path_829" data-name="Path 829" d="M-27.139,10.157l-1.311,7.366C-29.95,25.9-38.006,30.36-41.745,32A21.921,21.921,0,0,0-39,25.348c2.13-.369,3.653-1.6,3.949-3.256a.851.851,0,0,0-.7-.982h0l-2.875-.5c-.08-1.329-.109-1.283-1.562-9.408a3.35,3.35,0,0,0-3.915-2.667,3.348,3.348,0,0,0-.963.342,30.909,30.909,0,0,1-6.117,2.485l.951-5.316A1.618,1.618,0,0,1-48.349,4.75a1.607,1.607,0,0,1,.47.167A29.472,29.472,0,0,0-29,8.305a1.6,1.6,0,0,1,1.854,1.3,1.6,1.6,0,0,1,0,.551Z" transform="translate(66.729 -3.022)" fill="#25e0b1"/>
      <g id="Group_379" data-name="Group 379">
        <path id="Path_503" data-name="Path 503" d="M-32.474,6.276a27.4,27.4,0,0,1-17.783-3.2,3.349,3.349,0,0,0-4.537,1.361,3.329,3.329,0,0,0-.342.962l-1.085,6.062a26.658,26.658,0,0,1-9.831.27,3.317,3.317,0,0,0-3.833,2.705,3.311,3.311,0,0,0,0,1.118l1.317,7.367c1.69,9.462,10.8,14.266,14.642,15.892a3.372,3.372,0,0,0,3.612-.628A32.163,32.163,0,0,0-46.245,33.6c.108.01.214.022.322.022a3.423,3.423,0,0,0,1.326-.265c3.841-1.634,12.956-6.453,14.644-15.894l1.312-7.364a3.312,3.312,0,0,0-2.7-3.828,3.3,3.3,0,0,0-1.127,0ZM-51.5,36.944a1.651,1.651,0,0,1-1.753.3c-3.581-1.517-12.079-5.981-13.624-14.626l-1.318-7.367a1.6,1.6,0,0,1,1.311-1.848,1.631,1.631,0,0,1,.284-.022,1.749,1.749,0,0,1,.271.021,29.575,29.575,0,0,0,18.874-3.389,1.623,1.623,0,0,1,2.2.66,1.633,1.633,0,0,1,.166.467l1.333,7.459c1.545,8.647-4.9,15.707-7.741,18.341Zm11.159-14.7a3.265,3.265,0,0,1-1.571.936q.066-.591.093-1.194Zm10-12.436-1.311,7.366c-1.5,8.382-9.557,12.837-13.3,14.481A21.921,21.921,0,0,0-42.209,25c2.13-.369,3.653-1.6,3.949-3.256a.851.851,0,0,0-.7-.982h0l-2.875-.5c-.08-1.329-.109-1.283-1.562-9.408a3.35,3.35,0,0,0-3.915-2.667,3.348,3.348,0,0,0-.963.342,30.908,30.908,0,0,1-6.117,2.485l.951-5.316A1.618,1.618,0,0,1-51.554,4.4a1.607,1.607,0,0,1,.47.167A29.472,29.472,0,0,0-32.2,7.954a1.6,1.6,0,0,1,1.854,1.3,1.6,1.6,0,0,1,0,.551Z" transform="translate(69.934 -2.671)"/>
        <path id="Path_504" data-name="Path 504" d="M-34.433,16.8a.861.861,0,0,0-.212,1.2.862.862,0,0,0,1.2.212,2.749,2.749,0,0,1,3.828.674.861.861,0,0,0,1.2.212.862.862,0,0,0,.212-1.2,4.468,4.468,0,0,0-6.221-1.1l0,0Z" transform="translate(63.927 -4.949)"/>
        <path id="Path_505" data-name="Path 505" d="M-56.754,24.569a.863.863,0,0,0-.211-1.2,4.467,4.467,0,0,0-6.222,1.092l0,0a.862.862,0,0,0,.21,1.2.862.862,0,0,0,1.2-.211,2.747,2.747,0,0,1,3.825-.676h0a.863.863,0,0,0,1.2-.211Z" transform="translate(68.808 -6.072)"/>
        <path id="Path_506" data-name="Path 506" d="M-46.569,20.242a4.449,4.449,0,0,0-2.886,1.84.862.862,0,0,0,.212,1.2.861.861,0,0,0,1.2-.211h0a2.748,2.748,0,0,1,3.827-.675.862.862,0,0,0,1.2-.212.862.862,0,0,0-.212-1.2,4.442,4.442,0,0,0-3.34-.74Z" transform="translate(66.459 -5.664)"/>
        <path id="Path_507" data-name="Path 507" d="M-46.74,29a.85.85,0,0,0-.643-.146l-10.2,1.8a.859.859,0,0,0-.7,1h0c1.013,5.762,12.919,3.687,11.9-2.1a.855.855,0,0,0-.355-.556Zm-9.46,3.162,8.036-1.418C-49.091,33.358-54.428,34.293-56.2,32.157Z" transform="translate(67.945 -7.145)"/>
      </g>
      <path id="Path_830" data-name="Path 830" d="M-55.767,32.55l8.036-1.418C-48.658,33.751-54,34.686-55.767,32.55Z" transform="translate(67.512 -7.538)" fill="#fff"/>
    </g>
  </g>
</svg>
