<svg id="Group_449" data-name="Group 449" xmlns="http://www.w3.org/2000/svg" width="36.643" height="36.347" viewBox="0 0 36.643 36.347">
  <g id="Group_381" data-name="Group 381">
    <path id="Path_510" data-name="Path 510" d="M304.459,7.844a2.593,2.593,0,1,1,2.592-2.593A2.593,2.593,0,0,1,304.459,7.844Zm0-3.89a1.3,1.3,0,1,0,1.3,1.3h0A1.3,1.3,0,0,0,304.459,3.955Z" transform="translate(-286.142 -2.659)"/>
    <path id="Path_511" data-name="Path 511" d="M317.752,13.364h-.005a2.593,2.593,0,1,1,.005-5.185h.006a2.593,2.593,0,1,1-.006,5.185Zm0-3.889a1.3,1.3,0,0,0,0,2.592h0a1.3,1.3,0,0,0,0-2.592Z" transform="translate(-288.415 -3.603)"/>
    <path id="Path_512" data-name="Path 512" d="M323.224,26.679h-.011a2.593,2.593,0,0,1,.011-5.185h.01a2.593,2.593,0,0,1-.01,5.186Zm-.006-1.3h0a1.3,1.3,0,0,0,.007-2.592h0A1.3,1.3,0,0,0,322.3,25,1.281,1.281,0,0,0,323.218,25.382Z" transform="translate(-289.35 -5.88)"/>
    <path id="Path_513" data-name="Path 513" d="M285.692,26.4h-.028a2.592,2.592,0,1,1,.028-5.185h.03a2.593,2.593,0,1,1-.03,5.185Zm0-3.889a1.3,1.3,0,0,0-.014,2.593,1.326,1.326,0,0,0,1.31-1.282,1.3,1.3,0,0,0-1.282-1.31h-.013Z" transform="translate(-282.931 -5.832)"/>
    <path id="Path_514" data-name="Path 514" d="M291.365,13.168a2.589,2.589,0,1,1,1.809-.735A2.589,2.589,0,0,1,291.365,13.168Zm0-3.886a1.293,1.293,0,1,0,.928.39A1.3,1.3,0,0,0,291.365,9.282Z" transform="translate(-283.905 -3.571)"/>
    <path id="Path_515" data-name="Path 515" d="M319.46,26.746a.647.647,0,0,0-.64-.551h-1.561a.646.646,0,0,0-.433.166l-1.392,1.248c-2.013.148-3.144,2.031-3.79,3.943-.012.035-.027.069-.037.1A5.791,5.791,0,0,0,307.05,27.6s-2.593,0-2.624.007a.786.786,0,0,0-.3.087l-.393.235-.722-1.488a4.686,4.686,0,0,0,2.178-3.557,3.109,3.109,0,0,0,1.03-.2,3.78,3.78,0,0,0,.4-.167,2.289,2.289,0,0,0,3.294-2.982,1.733,1.733,0,0,0,.523-1.719,2.852,2.852,0,0,0-2.709-1.9,3.314,3.314,0,0,0-1.3.265,4,4,0,0,0-3.1-.119l-1.5-3.611a.648.648,0,0,0-1.2,0l-1.509,3.624a4,4,0,0,0-3.107.128,3.278,3.278,0,0,0-1.292-.259c-1.383,0-3.18,1.268-2.69,2.834a5.445,5.445,0,0,0,.507.794,2.293,2.293,0,0,0,.982,3.091,2.247,2.247,0,0,0,.312.133,2.41,2.41,0,0,0,.766.128,2.248,2.248,0,0,0,.672-.1c.074-.023.548-.3.578-.278.123.06.26.115.41.171a2.889,2.889,0,0,0,1.035.194,4.577,4.577,0,0,0,2.145,3.543l-.721,1.488-.392-.235a.7.7,0,0,0-.333-.092h-2.655a5.81,5.81,0,0,0-4.5,4.052c-.012-.035-.027-.069-.052-.144-.632-1.869-1.762-3.752-3.772-3.9l-1.392-1.248a.651.651,0,0,0-.434-.165h-1.559a.646.646,0,0,0-.641.552c-.038.251-.346,2.5.592,3.706a1.922,1.922,0,0,0,.949.666l2.794,7.082a3.8,3.8,0,0,0,3.537,2.408h.051a3.871,3.871,0,0,0,3.566-2.363l.27-.641v2.312a.648.648,0,0,0,.648.647h11.668a.648.648,0,0,0,.648-.647h0V37.607l.271.641a3.871,3.871,0,0,0,3.565,2.363h.051a3.8,3.8,0,0,0,3.537-2.408l2.794-7.082a1.922,1.922,0,0,0,.949-.666c.94-1.2.633-3.454.592-3.706Zm-3.393,5.526-2.959-.949c.074-.19.159-.375.249-.554l2.922.954Zm-17.445-2.882,1.331.8-1.331.8ZM301.232,37l2.076,2.264h-4.015Zm-.016-5.171-.316-.695.316-.189.315.189Zm1.257-1.64,1.332-.8v1.6Zm3.576-12.743a.64.64,0,0,0,.7.007,1.865,1.865,0,0,1,.962-.253,1.589,1.589,0,0,1,1.459.928c.022.095.1.377-.5.7a.654.654,0,0,0-.252.89.666.666,0,0,0,.143.176.939.939,0,0,1,.318.71,1,1,0,0,1-1.775.61.653.653,0,0,0-1.11.148c-.077.185-.57.23-.873.21a4.93,4.93,0,0,0-.172-.707c.013-.017.034-.024.046-.041a.651.651,0,0,0,.06-.609l-1.239-2.972a2.636,2.636,0,0,1,2.233.2Zm-4.835-3.075,2.268,5.445h-4.537Zm-3.889,7.22c-.3.03-.8-.011-.88-.206a.657.657,0,0,0-.868-.332.667.667,0,0,0-.241.184.986.986,0,1,1-1.544-1.226.89.89,0,0,1,.079-.089.66.66,0,0,0,.178-.739c-.12-.3-.424-.349-.632-.568-.677-.7.74-1.394,1.294-1.394a1.855,1.855,0,0,1,.962.25.648.648,0,0,0,.7-.011,2.636,2.636,0,0,1,2.233-.21l-1.234,2.959a.648.648,0,0,0,.06.608c.017.024.044.035.062.056a4.866,4.866,0,0,0-.171.71Zm1.2.819a3.779,3.779,0,0,1,.25-1.3h4.864a3.755,3.755,0,0,1,.256,1.3,2.733,2.733,0,1,1-5.37,0Zm2.116,4.476a2.666,2.666,0,0,0,1.139,0l.828,1.708-1.4.839-1.4-.839Zm-14.5,4.835,2.919-.953q.134.269.25.554l-2.953.948Zm-1.95-4.233h.725l1.381,1.239a.654.654,0,0,0,.433.166,2.129,2.129,0,0,1,1.575.756l-2.642.864-.079-.2a.649.649,0,0,0-.543-.408.617.617,0,0,1-.463-.253,3.713,3.713,0,0,1-.389-2.162Zm9.069,10.245a2.591,2.591,0,0,1-2.407,1.573,2.539,2.539,0,0,1-2.367-1.633l-1.652-4.2,2.889-.928a17.553,17.553,0,0,1,.521,2.869.666.666,0,0,0,.669.6.649.649,0,0,0,.626-.648c0-4.439,2.058-5.851,3.187-6.288v5.186Zm2.761-8.841h1.3v3.241a.654.654,0,0,0,.981.556l1.475-.887.785,1.733v2.249l-2.983,3.481h-1.554Zm9.039,10.368-3.2-3.493V33.536l.787-1.731,1.474.887a.654.654,0,0,0,.981-.555V28.9h1.3V39.263Zm8.87-1.59a2.541,2.541,0,0,1-2.367,1.633h-.032a2.538,2.538,0,0,1-2.375-1.573L307.7,34.269V29.083c1.128.444,3.187,1.85,3.187,6.287a.649.649,0,0,0,.626.648.689.689,0,0,0,.666-.6,17.537,17.537,0,0,1,.518-2.87l2.891.928Zm3.908-8.022a.617.617,0,0,1-.463.253.647.647,0,0,0-.542.407l-.079.2-2.644-.863a2.134,2.134,0,0,1,1.578-.757.651.651,0,0,0,.433-.166l1.381-1.239h.723a3.707,3.707,0,0,1-.386,2.163Z" transform="translate(-282.899 -4.263)"/>
    <path id="Path_516" data-name="Path 516" d="M308.5,37.844h-1.3a.648.648,0,0,0,0,1.3h1.3a.648.648,0,1,0,0-1.3Z" transform="translate(-286.945 -8.675)"/>
  </g>
  <g id="Group_448" data-name="Group 448" transform="translate(3.247 24.61)">
    <path id="Path_852" data-name="Path 852" d="M322.3,36.11l-2.959-.949c.075-.191.16-.375.25-.554l2.922.954Z" transform="translate(-292.377 -32.732)" fill="#25e0b1"/>
    <path id="Path_853" data-name="Path 853" d="M301.866,32.944l1.332.8-1.332.8Z" transform="translate(-289.389 -32.447)" fill="#25e0b1"/>
    <path id="Path_854" data-name="Path 854" d="M304.929,35.705l-.315-.695.315-.189.315.189Z" transform="translate(-289.859 -32.768)" fill="#25e0b1"/>
    <path id="Path_855" data-name="Path 855" d="M306.511,33.745l1.331-.8v1.6Z" transform="translate(-290.184 -32.447)" fill="#25e0b1"/>
    <path id="Path_856" data-name="Path 856" d="M286.816,35.561l2.92-.953q.134.269.25.554l-2.953.948Z" transform="translate(-286.816 -32.732)" fill="#25e0b1"/>
    <path id="Path_857" data-name="Path 857" d="M294.079,41.226a2.59,2.59,0,0,1-2.407,1.573,2.539,2.539,0,0,1-2.367-1.633l-1.652-4.2,2.889-.928a17.557,17.557,0,0,1,.521,2.869.666.666,0,0,0,.669.6.649.649,0,0,0,.626-.648c0-4.439,2.058-5.851,3.187-6.288v5.186Z" transform="translate(-286.959 -32.385)" fill="#25e0b1"/>
    <path id="Path_858" data-name="Path 858" d="M298.735,32.345h1.3v3.241a.655.655,0,0,0,.982.556l1.475-.887.785,1.733v2.249l-2.983,3.481h-1.554Z" transform="translate(-288.854 -32.345)" fill="#25e0b1"/>
    <path id="Path_859" data-name="Path 859" d="M308.978,42.714l-3.2-3.493V36.987l.787-1.731,1.474.887a.654.654,0,0,0,.982-.555V32.346h1.3V42.714Z" transform="translate(-290.058 -32.345)" fill="#25e0b1"/>
    <path id="Path_860" data-name="Path 860" d="M319.05,41.162a2.541,2.541,0,0,1-2.367,1.633h-.032a2.538,2.538,0,0,1-2.375-1.573l-1.465-3.463V32.573c1.127.444,3.187,1.85,3.187,6.287a.649.649,0,0,0,.626.648.689.689,0,0,0,.666-.6,17.544,17.544,0,0,1,.518-2.87l2.891.928Z" transform="translate(-291.261 -32.384)" fill="#25e0b1"/>
  </g>
  <path id="Path_861" data-name="Path 861" d="M310.364,18.5a.64.64,0,0,0,.7.007,1.873,1.873,0,0,1,.962-.253,1.587,1.587,0,0,1,1.458.928c.023.094.1.377-.5.7a.654.654,0,0,0-.108,1.065.939.939,0,0,1,.318.71,1,1,0,0,1-1.776.61.652.652,0,0,0-1.109.148c-.078.185-.57.23-.874.209a5.048,5.048,0,0,0-.171-.707c.013-.017.033-.023.046-.041a.653.653,0,0,0,.06-.609l-1.238-2.972a2.639,2.639,0,0,1,2.233.2Z" transform="translate(-287.214 -5.305)" fill="#25e0b1"/>
  <path id="Path_862" data-name="Path 862" d="M299.458,22.643c-.3.03-.8-.01-.88-.206a.657.657,0,0,0-1.109-.148.986.986,0,0,1-1.544-1.227,1.152,1.152,0,0,1,.08-.089.658.658,0,0,0,.177-.739c-.119-.3-.423-.349-.632-.567-.676-.7.74-1.394,1.295-1.394a1.863,1.863,0,0,1,.962.25.65.65,0,0,0,.7-.01,2.635,2.635,0,0,1,2.233-.21l-1.234,2.959a.649.649,0,0,0,.06.608c.017.023.044.035.062.056a4.863,4.863,0,0,0-.171.71Z" transform="translate(-285.032 -5.307)" fill="#25e0b1"/>
  <path id="Path_863" data-name="Path 863" d="M304.523,14.863l2.269,5.445h-4.537Z" transform="translate(-286.209 -4.746)" fill="#25e0b1"/>
  <path id="Path_864" data-name="Path 864" d="M285.961,22.778a1.3,1.3,0,0,0-.014,2.594,1.326,1.326,0,0,0,1.31-1.283,1.3,1.3,0,0,0-1.282-1.31h-.013Z" transform="translate(-283.2 -6.099)" fill="#25e0b1"/>
  <path id="Path_865" data-name="Path 865" d="M291.637,9.546a1.3,1.3,0,1,0-.014,2.593,1.326,1.326,0,0,0,1.31-1.282,1.3,1.3,0,0,0-1.282-1.311h-.013Z" transform="translate(-284.17 -3.837)" fill="#25e0b1"/>
  <path id="Path_866" data-name="Path 866" d="M304.726,4.222a1.3,1.3,0,0,0-.014,2.594,1.326,1.326,0,0,0,1.31-1.283,1.3,1.3,0,0,0-1.282-1.31h-.013Z" transform="translate(-286.409 -2.926)" fill="#25e0b1"/>
  <path id="Path_867" data-name="Path 867" d="M318.023,9.742a1.3,1.3,0,0,0-.014,2.594,1.326,1.326,0,0,0,1.31-1.283,1.3,1.3,0,0,0-1.282-1.31h-.013Z" transform="translate(-288.682 -3.87)" fill="#25e0b1"/>
  <path id="Path_868" data-name="Path 868" d="M323.478,23.058a1.3,1.3,0,0,0-.014,2.593,1.327,1.327,0,0,0,1.311-1.282,1.3,1.3,0,0,0-1.283-1.311Z" transform="translate(-289.615 -6.147)" fill="#25e0b1"/>
</svg>
