<svg id="Group_453" data-name="Group 453" xmlns="http://www.w3.org/2000/svg" width="36.62" height="36.623" viewBox="0 0 36.62 36.623">
  <circle id="Ellipse_3" data-name="Ellipse 3" cx="17.89" cy="17.89" r="17.89" transform="translate(0.422 0.422)" fill="#fff"/>
  <g id="Group_452" data-name="Group 452" transform="translate(0)">
    <path id="Path_871" data-name="Path 871" d="M24.993,46.665h0Z" transform="translate(-6.688 -10.042)"/>
    <path id="Path_872" data-name="Path 872" d="M34,7.693a.683.683,0,0,0-.084-.123.712.712,0,0,0-.135-.088,18.306,18.306,0,0,0-25.266,26.5.638.638,0,0,0,.055.051A18.294,18.294,0,0,0,33.912,34l0,0v0c.177-.171.355-.343.526-.521A18.306,18.306,0,0,0,34,7.693Zm-.649,24.677a16.9,16.9,0,0,1-1.418-1.726l.128-.1.024-.018a.763.763,0,1,0-.963-1.185l-.036.028a16.675,16.675,0,0,1-1.9-4.687l.967-.391a.764.764,0,1,0-.572-1.416l-.685.277a16.8,16.8,0,0,1,0-4.7l.687.278a.748.748,0,0,0,.285.056v0a.763.763,0,0,0,.287-1.471l-.972-.393a16.685,16.685,0,0,1,1.9-4.683l.033.025a.75.75,0,0,0,.468.162.763.763,0,0,0,.47-1.365l-.131-.1a16.885,16.885,0,0,1,1.437-1.711,16.716,16.716,0,0,1-.014,23.128ZM4.445,20.8A16.708,16.708,0,0,1,9.086,9.229a16.749,16.749,0,0,1,1.421,1.728l-.127.1a.763.763,0,0,0,.47,1.365.754.754,0,0,0,.469-.162l.034-.027a16.635,16.635,0,0,1,1.9,4.686l-.969.392a.763.763,0,0,0,.571,1.416l.688-.278a16.856,16.856,0,0,1,0,4.7l-.689-.279a.764.764,0,0,0-.571,1.417l.972.393a16.68,16.68,0,0,1-1.9,4.685l-.034-.027a.763.763,0,0,0-.939,1.2l.132.1A16.852,16.852,0,0,1,9.08,32.351,16.708,16.708,0,0,1,4.445,20.8ZM10.2,33.421a18.314,18.314,0,0,0,1.515-1.836l1.274.994a.763.763,0,0,0,.939-1.2L12.573,30.32a18.143,18.143,0,0,0,2.116-5.057l.579.235a.771.771,0,0,0,.286.056v0a.763.763,0,0,0,.286-1.471l-.831-.336A18.37,18.37,0,0,0,15,17.86l.845-.342a.764.764,0,0,0-.572-1.417l-.584.237a18.164,18.164,0,0,0-2.12-5.05l1.365-1.064.024-.019a.763.763,0,1,0-.963-1.184l-1.274.994a18.441,18.441,0,0,0-1.541-1.827A16.71,16.71,0,0,1,32.251,8.17a18.3,18.3,0,0,0-1.524,1.845l-1.276-.994a.763.763,0,0,0-.939,1.2l1.355,1.056a18.131,18.131,0,0,0-2.117,5.055l-.579-.235a.764.764,0,0,0-.572,1.417l.832.336a18.357,18.357,0,0,0,.014,5.887l-.846.342A.763.763,0,0,0,27.17,25.5l.586-.237a18.147,18.147,0,0,0,2.121,5.051l-1.363,1.063a.763.763,0,1,0,.939,1.2l1.273-.992a18.154,18.154,0,0,0,1.537,1.824,16.715,16.715,0,0,1-22.064.011Z" transform="translate(-2.912 -2.488)"/>
  </g>
  <path id="Path_873" data-name="Path 873" d="M11.7,33.731a18.554,18.554,0,0,0,1.515-1.837l1.274.994a.756.756,0,0,0,.468.162.764.764,0,0,0,.471-1.365l-1.354-1.056a18.138,18.138,0,0,0,2.116-5.056l.579.235a.767.767,0,0,0,.286.056v0a.763.763,0,0,0,.286-1.471l-.831-.336a18.394,18.394,0,0,0-.015-5.885l.845-.342a.764.764,0,0,0-.572-1.416l-.584.236a18.142,18.142,0,0,0-2.121-5.05l1.365-1.064.024-.019a.763.763,0,0,0-.963-1.184l-1.275.994A18.32,18.32,0,0,0,11.678,8.5a16.71,16.71,0,0,1,22.077-.018,18.431,18.431,0,0,0-1.525,1.846L30.955,9.33a.763.763,0,0,0-.939,1.2L31.37,11.59a18.133,18.133,0,0,0-2.116,5.055l-.579-.235a.764.764,0,1,0-.572,1.416l.831.337a18.352,18.352,0,0,0,.015,5.886l-.846.342a.764.764,0,0,0,.572,1.416l.586-.236a18.179,18.179,0,0,0,2.12,5.051l-1.362,1.062a.764.764,0,0,0,.47,1.365.757.757,0,0,0,.469-.162l1.272-.991a18.35,18.35,0,0,0,1.538,1.824,16.715,16.715,0,0,1-22.064.011Z" transform="translate(-4.411 -2.802)" fill="#25e0b1"/>
  <path id="Path_874" data-name="Path 874" d="M38.669,33.752a16.82,16.82,0,0,1-1.418-1.727l.129-.1.023-.018a.763.763,0,0,0-.962-1.185l-.036.027a16.637,16.637,0,0,1-1.9-4.686l.967-.391a.763.763,0,1,0-.571-1.416l-.686.277a16.862,16.862,0,0,1,0-4.7l.687.278a.755.755,0,0,0,.286.056v0a.763.763,0,0,0,.286-1.471L34.5,18.3a16.673,16.673,0,0,1,1.9-4.684l.033.026a.755.755,0,0,0,.468.162.763.763,0,0,0,.471-1.365l-.131-.1a16.769,16.769,0,0,1,1.436-1.711,16.716,16.716,0,0,1-.014,23.128Z" transform="translate(-8.237 -3.879)" fill="#fff"/>
  <path id="Path_875" data-name="Path 875" d="M4.752,22.178A16.708,16.708,0,0,1,9.394,10.606a16.955,16.955,0,0,1,1.421,1.728l-.128.1a.763.763,0,0,0,.471,1.365.755.755,0,0,0,.468-.162l.034-.027a16.637,16.637,0,0,1,1.9,4.686l-.97.392A.764.764,0,0,0,13.16,20.1l.687-.278a16.856,16.856,0,0,1,0,4.7l-.689-.279a.764.764,0,1,0-.572,1.416l.973.394a16.682,16.682,0,0,1-1.9,4.685l-.034-.027a.763.763,0,0,0-.939,1.2l.133.1a16.761,16.761,0,0,1-1.432,1.7A16.7,16.7,0,0,1,4.752,22.178Z" transform="translate(-3.227 -3.876)" fill="#fff"/>
</svg>
