<svg xmlns="http://www.w3.org/2000/svg" width="476.106" height="422.105" viewBox="0 0 476.106 422.105">
  <g id="Taieri" transform="translate(-275.443 12.775)">
    <g id="Shape" transform="translate(278.443 -9.775)">
      <path id="Path_601" data-name="Path 601" d="M844.595,348.734a16.976,16.976,0,1,1-33.952,0" transform="translate(-374.595 -54.437)" fill="none" stroke="#00ac95" stroke-linecap="round" stroke-linejoin="round" stroke-width="6"/>
      <path id="Path_602" data-name="Path 602" d="M847.331,36.622a21.4,21.4,0,0,1,0-42.809" transform="translate(-377.331 9.139)" fill="none" stroke="#ff3555" stroke-linecap="round" stroke-linejoin="round" stroke-width="6"/>
      <path id="Path_603" data-name="Path 603" d="M479.408,10.632a17.714,17.714,0,1,0,35.428,0V-9.416" transform="translate(-314.753 9.711)" fill="none" stroke="#00ac95" stroke-linecap="round" stroke-linejoin="round" stroke-width="6"/>
      <path id="Path_604" data-name="Path 604" d="M318.368,479.827a39.709,39.709,0,1,1,0-79.417h36.539" transform="translate(-278.443 -63.827)" fill="none" stroke="#ffb000" stroke-linecap="round" stroke-linejoin="round" stroke-width="6"/>
      <path id="Path_605" data-name="Path 605" d="M321.15,458.394a12.849,12.849,0,1,1,0-25.685h14.176" transform="translate(-283.661 -69.555)" fill="none" stroke="#00ac95" stroke-linecap="round" stroke-linejoin="round" stroke-width="6"/>
      <path id="Path_606" data-name="Path 606" d="M844.277,141.513V91.819a17.714,17.714,0,0,0-35.428,0v7.692" transform="translate(-374.277 -5.287)" fill="none" stroke="#f47846" stroke-linecap="round" stroke-linejoin="round" stroke-width="6"/>
      <path id="Path_607" data-name="Path 607" d="M495.442,312.7H442.467a24.05,24.05,0,1,0,0,48.1h21.864m-59.277,83.711H401.9a16.89,16.89,0,0,1,0-33.781h37.665a24.941,24.941,0,0,0,24.927-24.956M411.822,201.239v18.979a41.833,41.833,0,0,0,41.81,41.858h16.652a25.172,25.172,0,0,1,25.158,25.186" transform="translate(-297.775 -28.509)" fill="none" stroke="#f47846" stroke-linecap="round" stroke-linejoin="round" stroke-width="6"/>
      <circle id="Ellipse_57" data-name="Ellipse 57" cx="11.809" cy="11.809" r="11.809" transform="translate(160.556 103.987)" fill="none" stroke="#00ac95" stroke-linecap="round" stroke-linejoin="round" stroke-width="6"/>
      <ellipse id="Ellipse_58" data-name="Ellipse 58" cx="17.123" cy="16.976" rx="17.123" ry="16.976" transform="translate(187.591 335.107)" fill="none" stroke="#ff3555" stroke-linecap="round" stroke-linejoin="round" stroke-width="6"/>
      <circle id="Ellipse_59" data-name="Ellipse 59" cx="18.599" cy="18.599" r="18.599" transform="translate(35.132 57.274)" fill="none" stroke="#00ac95" stroke-linecap="round" stroke-linejoin="round" stroke-width="6"/>
      <path id="Path_608" data-name="Path 608" d="M334.995,113.991c22.908,0,41.48-18.307,41.48-40.89S357.9,32.212,334.995,32.212s-41.48,18.307-41.48,40.889" transform="translate(-281.116 2.329)" fill="none" stroke="#ffb000" stroke-linecap="round" stroke-linejoin="round" stroke-width="6"/>
      <path id="Path_609" data-name="Path 609" d="M747.944,422.868c-6.3,23.564,7.331,47.7,30.449,53.9s46.97-7.867,53.272-31.431-7.331-47.7-30.449-53.9" transform="translate(-363.204 -62.237)" fill="none" stroke="#00ac95" stroke-linecap="round" stroke-linejoin="round" stroke-width="6"/>
      <path id="Path_610" data-name="Path 610" d="M440.849,404.022c-25.082,0-45.416-22.271-45.416-49.743a53.075,53.075,0,0,1,6.7-26.022M471.9,304.234H440.959a42.971,42.971,0,0,0-26.525,9.239" transform="translate(-299.621 -46.773)" fill="none" stroke="#f47846" stroke-linecap="round" stroke-linejoin="round" stroke-width="6"/>
      <path id="Path_611" data-name="Path 611" d="M391.954,138.8a16.976,16.976,0,1,0,16.976,16.976V138.8" transform="translate(-295.884 -16.847)" fill="none" stroke="#00ac95" stroke-linecap="round" stroke-linejoin="round" stroke-width="6"/>
      <path id="Path_612" data-name="Path 612" d="M401.893,13.169a22.438,22.438,0,1,0,44.875,0A22.511,22.511,0,0,0,424.331-9.416H401.893" transform="translate(-300.757 9.711)" fill="none" stroke="#ff3555" stroke-linecap="round" stroke-linejoin="round" stroke-width="6"/>
      <path id="Path_613" data-name="Path 613" d="M299.152,292.839a19.425,19.425,0,1,1,19.633-19.423v59.4" transform="translate(-278.634 -37.554)" fill="none" stroke="#00ac95" stroke-linecap="round" stroke-linejoin="round" stroke-width="6"/>
      <path id="Path_614" data-name="Path 614" d="M793.413,298.558a17.718,17.718,0,1,0,17.717-18.009H751.789" transform="translate(-364.158 -42.25)" fill="none" stroke="#00ac95" stroke-linecap="round" stroke-linejoin="round" stroke-width="6"/>
      <path id="Path_615" data-name="Path 615" d="M620.318,31.5a18.632,18.632,0,1,0,18.894,18.63v-59.9" transform="translate(-336.805 9.775)" fill="none" stroke="#0084ad" stroke-linecap="round" stroke-linejoin="round" stroke-width="6"/>
      <path id="Path_616" data-name="Path 616" d="M603.9,472.441a16.988,16.988,0,1,1,16.987,17.123h-27" transform="translate(-335.458 -73.564)" fill="none" stroke="#00ac95" stroke-linecap="round" stroke-linejoin="round" stroke-width="6"/>
      <path id="Path_617" data-name="Path 617" d="M665.052,182.152a16.89,16.89,0,1,1-16.976,16.89V135.925" transform="translate(-345.224 -16.37)" fill="none" stroke="#f47846" stroke-linecap="round" stroke-linejoin="round" stroke-width="6"/>
      <path id="Path_618" data-name="Path 618" d="M296.495,183.2a16.725,16.725,0,1,0,16.976,16.723v-68.3" transform="translate(-278.634 -15.601)" fill="none" stroke="#f47846" stroke-linecap="round" stroke-linejoin="round" stroke-width="6"/>
      <path id="Path_619" data-name="Path 619" d="M511.979,125.064a29.926,29.926,0,1,0-29.922,30.408h78.428" transform="translate(-309.942 -8.952)" fill="none" stroke="#ffb000" stroke-linecap="round" stroke-linejoin="round" stroke-width="6"/>
      <path id="Path_620" data-name="Path 620" d="M798.634,238.013a30.413,30.413,0,0,0,0-60.818H720.209" transform="translate(-358.558 -23.754)" fill="none" stroke="#00ac95" stroke-linecap="round" stroke-linejoin="round" stroke-width="6"/>
      <path id="Path_621" data-name="Path 621" d="M674.991,47.065a28.338,28.338,0,0,1,28.183-28.49H732.13a28.337,28.337,0,0,1,28.183,28.49h0a28.337,28.337,0,0,1-28.183,28.49H703.174a28.338,28.338,0,0,1-28.183-28.49Z" transform="translate(-350.54 4.748)" fill="none" stroke="#f47846" stroke-linecap="round" stroke-linejoin="round" stroke-width="6"/>
      <path id="Path_622" data-name="Path 622" d="M369.576,284.471a17.551,17.551,0,0,1-17.566-17.536V216.981a17.551,17.551,0,0,1,17.566-17.536h0a17.551,17.551,0,0,1,17.567,17.536v49.953a17.551,17.551,0,0,1-17.567,17.536Z" transform="translate(-291.489 -27.774)" fill="none" stroke="#ffb000" stroke-linecap="round" stroke-linejoin="round" stroke-width="6"/>
      <path id="Path_623" data-name="Path 623" d="M574.867,267.081V240.707a13.68,13.68,0,0,1,13.729-13.63h0a13.679,13.679,0,0,1,13.728,13.63v52.748a13.679,13.679,0,0,1-13.728,13.63h0a13.68,13.68,0,0,1-13.729-13.63v-6.372" transform="translate(-331.983 -32.726)" fill="none" stroke="#ff3555" stroke-linecap="round" stroke-linejoin="round" stroke-width="6"/>
      <path id="Path_624" data-name="Path 624" d="M595.484,84.151v2.3a23.734,23.734,0,0,1-23.766,23.7h0a23.734,23.734,0,0,1-23.766-23.7V14.285a23.733,23.733,0,0,1,23.766-23.7h0a23.733,23.733,0,0,1,23.766,23.7v.707" transform="translate(-327.164 9.711)" fill="none" stroke="#ffb000" stroke-linecap="round" stroke-linejoin="round" stroke-width="6"/>
      <path id="Path_625" data-name="Path 625" d="M299.226,331.867h-1.421a18.3,18.3,0,0,0-18.286,18.3h0a18.3,18.3,0,0,0,18.286,18.3h42.254a18.3,18.3,0,0,0,18.286-18.3h0a18.3,18.3,0,0,0-18.286-18.3h-1.421" transform="translate(-278.634 -51.447)" fill="none" stroke="#ffb000" stroke-linecap="round" stroke-linejoin="round" stroke-width="6"/>
      <path id="Path_626" data-name="Path 626" d="M547.234,227.077v68.386a37.348,37.348,0,0,0,74.694,0V279.306" transform="translate(-327.097 -32.767)" fill="none" stroke="#00ac95" stroke-linecap="round" stroke-linejoin="round" stroke-width="6"/>
      <path id="Path_627" data-name="Path 627" d="M456.082,367.754h61.349a42.513,42.513,0,0,1,0,85.026H498.975" transform="translate(-310.649 -58.037)" fill="none" stroke="#00ac95" stroke-linecap="round" stroke-linejoin="round" stroke-width="6"/>
      <path id="Path_628" data-name="Path 628" d="M481.085,234.155H466.564a17.714,17.714,0,0,1,0-35.428h29.043a17.686,17.686,0,0,1,17.659,17.714v1.574a16.115,16.115,0,0,1-16.09,16.14" transform="translate(-309.283 -27.587)" fill="none" stroke="#0084ad" stroke-linecap="round" stroke-linejoin="round" stroke-width="6"/>
      <path id="Path_629" data-name="Path 629" d="M660.788,151.4h16.587c11.138,0,20.169-8.525,20.169-19.042s-9.031-19.042-20.169-19.042H644.2c-11.139,0-20.169,8.526-20.169,19.042" transform="translate(-340.995 -12.284)" fill="none" stroke="#00ac95" stroke-linecap="round" stroke-linejoin="round" stroke-width="6"/>
      <path id="Path_630" data-name="Path 630" d="M501.569,63.075H461.807a45.66,45.66,0,0,0-45.56,45.76" transform="translate(-303.401 -3.143)" fill="none" stroke="#00ac95" stroke-linecap="round" stroke-linejoin="round" stroke-width="6"/>
      <path id="Path_631" data-name="Path 631" d="M794.244,403.285a16.852,16.852,0,1,1-16.975,16.852v-109.8" transform="translate(-368.677 -47.855)" fill="none" stroke="#ff3555" stroke-linecap="round" stroke-linejoin="round" stroke-width="6"/>
      <path id="Path_632" data-name="Path 632" d="M643.411,429.91A31.1,31.1,0,0,1,674.3,398.616h54.43" transform="translate(-344.543 -63.509)" fill="none" stroke="#00ac95" stroke-linecap="round" stroke-linejoin="round" stroke-width="6"/>
      <path id="Path_633" data-name="Path 633" d="M545.8,191.091h29.043a35.373,35.373,0,0,0,35.317-35.428" transform="translate(-326.812 -19.87)" fill="none" stroke="#0084ad" stroke-linecap="round" stroke-linejoin="round" stroke-width="6"/>
      <path id="Path_634" data-name="Path 634" d="M740.652,311.052v15.87a29.011,29.011,0,0,1-29.017,29H688.987" transform="translate(-352.673 -47.73)" fill="none" stroke="#0084ad" stroke-linecap="round" stroke-linejoin="round" stroke-width="6"/>
      <path id="Path_635" data-name="Path 635" d="M806.192,214.876h-24.8a32.622,32.622,0,0,0-32.473,32.77" transform="translate(-363.649 -30.478)" fill="none" stroke="#f47846" stroke-linecap="round" stroke-linejoin="round" stroke-width="6"/>
      <path id="Path_636" data-name="Path 636" d="M355.958,484.282v-26.9c0-15.489,12.1-28.464,28.342-31.851" transform="translate(-292.189 -68.282)" fill="none" stroke="#00ac95" stroke-linecap="round" stroke-linejoin="round" stroke-width="6"/>
      <path id="Path_637" data-name="Path 637" d="M293.694,107.216v54.322" transform="translate(-281.147 -11.2)" fill="none" stroke="#00ac95" stroke-linecap="round" stroke-linejoin="round" stroke-width="6"/>
      <path id="Path_638" data-name="Path 638" d="M668.352,259.017v44.874" transform="translate(-348.794 -38.404)" fill="none" stroke="#00ac95" stroke-linecap="round" stroke-linejoin="round" stroke-width="6"/>
      <path id="Path_639" data-name="Path 639" d="M613.087,407.229v18.3" transform="translate(-338.822 -65.037)" fill="none" stroke="#00ac95" stroke-linecap="round" stroke-linejoin="round" stroke-width="6"/>
      <path id="Path_640" data-name="Path 640" d="M702.454,200.88V242.9a12.015,12.015,0,0,1-12.064,11.967,12.018,12.018,0,0,0-12.064,11.972v2.484a12.018,12.018,0,0,0,12.064,11.972,12.018,12.018,0,0,1,12.064,11.972v2.749a14.779,14.779,0,0,1-14.835,14.722H668.673m-48.588,39.234h7.905a29.56,29.56,0,0,0,29.578-29.541" transform="translate(-340.309 -28.14)" fill="none" stroke="#ffb000" stroke-linecap="round" stroke-linejoin="round" stroke-width="6"/>
      <path id="Path_641" data-name="Path 641" d="M796.035,127.105v5.987A15.316,15.316,0,0,1,780.7,148.385h0a15.317,15.317,0,0,1-15.339-15.293v-4.96a15.2,15.2,0,0,0-15.218-15.176h0a15.2,15.2,0,0,0-15.221,15.176v6.1" transform="translate(-361.167 -12.218)" fill="none" stroke="#ff3555" stroke-linecap="round" stroke-linejoin="round" stroke-width="6"/>
      <path id="Path_642" data-name="Path 642" d="M668.532,447.073a21.548,21.548,0,0,1,21.552-21.542h0a21.548,21.548,0,0,1,21.552,21.542V462.74a21.548,21.548,0,0,1-21.552,21.542h0a21.548,21.548,0,0,1-21.552-21.542Z" transform="translate(-348.948 -68.282)" fill="none" stroke="#0084ad" stroke-linecap="round" stroke-linejoin="round" stroke-width="6"/>
    </g>
  </g>
</svg>
