<svg xmlns="http://www.w3.org/2000/svg" width="24.2" height="24.211" viewBox="0 0 24.2 24.211">
  <g id="Group_394" data-name="Group 394" transform="translate(-191.401 -115.789)">
    <path id="Path_654" data-name="Path 654" d="M211.526,119.24l-.59-.1v-2.3a.943.943,0,0,0-.48-.817.978.978,0,0,0-.961,0,.943.943,0,0,0-.48.817v2.333h-4.751v-2.333a.943.943,0,0,0-.48-.817.978.978,0,0,0-.96,0,.943.943,0,0,0-.48.817v2.333h-4.751v-2.333a.928.928,0,0,0-.281-.667.977.977,0,0,0-.666-.277h-.014a.976.976,0,0,0-.679.276.928.928,0,0,0-.281.667v2.3l-.59.1a4.321,4.321,0,0,0-2.564,1.435A4.179,4.179,0,0,0,191.5,123.4V135.68a4.153,4.153,0,0,0,1.258,2.984A4.308,4.308,0,0,0,195.8,139.9H206.64a.966.966,0,0,0,.832-.472.931.931,0,0,0,0-.943.966.966,0,0,0-.832-.472H195.8a2.382,2.382,0,0,1-1.68-.683,2.3,2.3,0,0,1-.7-1.65v-8.066h19.763v3.97a.944.944,0,0,0,.48.817.979.979,0,0,0,.961,0,.944.944,0,0,0,.48-.817V123.4a4.178,4.178,0,0,0-1.016-2.72A4.321,4.321,0,0,0,211.526,119.24Zm1.659,6.488H193.422V123.4a2.327,2.327,0,0,1,.7-1.649,2.382,2.382,0,0,1,1.68-.683H210.81a2.382,2.382,0,0,1,1.68.683,2.327,2.327,0,0,1,.7,1.649Z" transform="translate(0 0)" fill="#25e0b1" stroke="#010037" stroke-width="0.2"/>
    <circle id="Ellipse_60" data-name="Ellipse 60" cx="1.353" cy="1.353" r="1.353" transform="translate(212.795 137.194)" fill="#25e0b1" stroke="#010037" stroke-width="0.2"/>
  </g>
</svg>
