<svg id="Group_278" data-name="Group 278" xmlns="http://www.w3.org/2000/svg" width="25" height="31" viewBox="0 0 25 31">
  <path id="Path_478" data-name="Path 478" d="M337.221,388.37a2.821,2.821,0,0,0,.475-1.565v-4.534l2.184-.848a.289.289,0,0,0,.171-.186h0a.3.3,0,0,0-.034-.253l-2.342-3.638a.334.334,0,0,1-.045-.05.277.277,0,0,0-.117-.1l-.065-.031-3.49-1.355a.283.283,0,0,0-.365.173.3.3,0,0,0,.166.38l2.84,1.1-8.663,3.364-8.663-3.364,2.447-.95a.3.3,0,0,0,.164-.38.283.283,0,0,0-.366-.173l-3.12,1.211a.306.306,0,0,1-.041.021.276.276,0,0,0-.114.094.4.4,0,0,1-.047.053l-2.342,3.639a.3.3,0,0,0-.034.254.289.289,0,0,0,.171.186l2.184.848v4.535a2.822,2.822,0,0,0,.475,1.564,2.675,2.675,0,0,0,1.247,1.01s4.754,1.83,6.56,2.545a4.264,4.264,0,0,0,1.477.207,4.353,4.353,0,0,0,1.472-.2c2-.783,6.566-2.548,6.566-2.548A2.674,2.674,0,0,0,337.221,388.37Zm-10.206,2.35c-.672.61-1.854.073-1.854.073l-5.062-1.966a2.1,2.1,0,0,1-.98-.792,2.213,2.213,0,0,1-.373-1.227v-4.315l6.721,2.61a.279.279,0,0,0,.338-.113l1.846-2.869v6.772A2.834,2.834,0,0,1,327.015,390.72Zm1.726-.013c-.579-.387-.519-1.8-.519-1.8v-6.785l1.846,2.869a.279.279,0,0,0,.338.113l6.721-2.61v4.315a2.215,2.215,0,0,1-.373,1.227,2.1,2.1,0,0,1-.979.792l-5.215,2.025A2.273,2.273,0,0,1,328.741,390.707Z" transform="translate(-315.277 -361.131)" fill="#010037"/>
  <path id="Path_479" data-name="Path 479" d="M400.4,222.194c0-.085,0-.169-.008-.252a1.207,1.207,0,0,0-.935-1.241,1.318,1.318,0,0,0-.514.065l-.1.027.43-1.446a.7.7,0,0,0,0-.486.666.666,0,0,0-.611-.392,3.837,3.837,0,0,0-.981.071,4.5,4.5,0,0,1-.552.066c.039-.115.09-.233.143-.356a2.222,2.222,0,0,0,.259-1.234h0a.806.806,0,0,0-.256-.5.863.863,0,0,0-.568-.189,2.282,2.282,0,0,0-2.013,1.159h0a.41.41,0,1,0,.739.352,1.479,1.479,0,0,1,1.258-.7h.034a1.554,1.554,0,0,1-.2.788,3.842,3.842,0,0,0-.237.657.7.7,0,0,0,.073.553.671.671,0,0,0,.586.286,4.391,4.391,0,0,0,.863-.079,3.9,3.9,0,0,1,.634-.067l-.4,1.34a.851.851,0,0,0-.022.52.788.788,0,0,0,.924.466c.072-.013.144-.033.215-.053a.507.507,0,0,1,.2-.04c.086.009.2.22.213.478,0,.072.006.146.007.22a1.818,1.818,0,0,0,.26,1.085l.005,0a.4.4,0,0,0,.307.181.411.411,0,0,0,.435-.384.406.406,0,0,0-.091-.279A1.256,1.256,0,0,1,400.4,222.194Z" transform="translate(-389.613 -211.936)" fill="#010037"/>
  <path id="Path_480" data-name="Path 480" d="M527.4,249.129a.4.4,0,0,0-.053.19.411.411,0,0,0,.411.411.406.406,0,0,0,.353-.213l0,0c.006-.012.013-.024.019-.036l0-.005a7.614,7.614,0,0,1,1.25-1.82h0a.407.407,0,1,0-.595-.552h0A8.391,8.391,0,0,0,527.4,249.129Z" transform="translate(-513.377 -240.601)" fill="#010037"/>
  <path id="Path_481" data-name="Path 481" d="M335.913,317.95c-.027-.048-.054-.1-.082-.143a14.29,14.29,0,0,0-.932-1.363,7.835,7.835,0,0,0-1.032-1.047,6.064,6.064,0,0,0-3.721-1.468,3.594,3.594,0,0,0-3.011,1.322,2.538,2.538,0,0,0-.422,1.909,2.034,2.034,0,0,0,.856,1.36l0-.007a.4.4,0,0,0,.235.083.411.411,0,0,0,.411-.411.4.4,0,0,0-.2-.345,1.23,1.23,0,0,1-.5-.823,1.731,1.731,0,0,1,.28-1.286,2.773,2.773,0,0,1,2.337-.985,5.25,5.25,0,0,1,3.214,1.279,6.708,6.708,0,0,1,.582.553l.012.01a4.473,4.473,0,0,1,.34.389l.034.04h0c.172.22.345.466.494.688l.009,0c.079.12.155.244.23.37l.022.036c.053.086.1.179.153.272.094.171.185.347.272.53l.007,0a.406.406,0,0,0,.355.216.411.411,0,0,0,.411-.411.4.4,0,0,0-.106-.27C336.079,318.276,335.987,318.088,335.913,317.95Z" transform="translate(-326.216 -303.176)" fill="#010037"/>
  <path id="Path_482" data-name="Path 482" d="M508.007,260.728a1.747,1.747,0,0,0,3.327.482,1.452,1.452,0,0,0,.114-.89,1.494,1.494,0,0,0-1.082-1.092,2.009,2.009,0,0,0-.676-.066,6,6,0,0,1,3.032-1.329c.006,0,.01,0,.016,0a.411.411,0,1,0,0-.822.384.384,0,0,0-.052.011v-.011a6.814,6.814,0,0,0-3.814,1.785,3.244,3.244,0,0,0-.664.827,7.153,7.153,0,0,0-2.264,2.113c-.178.239-.347.484-.511.733-.244.386-.618,1.041-.736,1.249a15.186,15.186,0,0,0-.814,1.778h0a.407.407,0,1,0,.768.266,14.352,14.352,0,0,1,.8-1.734h0a15,15,0,0,1,.926-1.5l0-.006c.07-.1.14-.2.213-.3A7.627,7.627,0,0,1,508.007,260.728Zm.81-.427c.005-.026.012-.052.02-.078a3.4,3.4,0,0,1,.387-.147,1.633,1.633,0,0,1,.92-.063.694.694,0,0,1,.5.47.658.658,0,0,1-.059.392.938.938,0,0,1-1.773-.574Z" transform="translate(-491.397 -250.031)" fill="#010037"/>
  <path id="Path_483" data-name="Path 483" d="M484.948,242.773a.411.411,0,0,0,.411-.411.4.4,0,0,0-.058-.2h0l-.961-2.213a.407.407,0,1,0-.766.272h0l.006.014,0,.008.974,2.242.006,0A.406.406,0,0,0,484.948,242.773Z" transform="translate(-472.526 -233.805)" fill="#010037"/>
  <path id="Path_484" data-name="Path 484" d="M513.3,212.2a.411.411,0,0,0,.411-.411c0-.008,0-.014,0-.022h0a3.023,3.023,0,0,1,.509-1.859l0,0a.4.4,0,0,0,.088-.242.411.411,0,0,0-.411-.411.4.4,0,0,0-.345.2l0,0a3.837,3.837,0,0,0-.648,2.309c0,.01-.006.018-.006.028A.411.411,0,0,0,513.3,212.2Z" transform="translate(-499.896 -205.343)" fill="#010037"/>
  <path id="Path_485" data-name="Path 485" d="M552.475,326.94a.394.394,0,0,0-.088.018l0-.009-.061.021-.012,0a14.7,14.7,0,0,0-4.052,2.012l-.437.32-.145.111c-.229.182-.633.527-.8.675a11.777,11.777,0,0,0-1.077,1.1l.007.006a.4.4,0,0,0-.088.242.411.411,0,0,0,.411.411.4.4,0,0,0,.32-.164,11.071,11.071,0,0,1,1.108-1.121h0s.094-.083.181-.157a10.17,10.17,0,0,1,.99-.764l.007,0a13.889,13.889,0,0,1,3.866-1.909.406.406,0,0,0,.286-.386A.411.411,0,0,0,552.475,326.94Z" transform="translate(-530.462 -315.329)" fill="#010037"/>
  <path id="Path_486" data-name="Path 486" d="M662.706,319.69a.391.391,0,0,0-.051.01V319.7a10.755,10.755,0,0,0-1.147.139H661.5a.387.387,0,0,0-.044.009l-.074.011h0v0a.406.406,0,0,0-.294.387.411.411,0,0,0,.411.411c.01,0,.019-.005.029-.006v.006a9.975,9.975,0,0,1,1.162-.146l.011,0a.411.411,0,0,0,0-.822Z" transform="translate(-638.117 -308.535)" fill="#010037"/>
  <path id="Path_487" data-name="Path 487" d="M320.656,265.143h0a1.981,1.981,0,0,1,1.53-1.318,3.393,3.393,0,0,1,2.215.4,5,5,0,0,1,1.889,1.725l.006,0a.4.4,0,0,0,.319.213.408.408,0,0,0,.335-.685,5.819,5.819,0,0,0-2.171-1.972,4.2,4.2,0,0,0-2.756-.475,2.774,2.774,0,0,0-2.152,1.9h0a.4.4,0,0,0-.033.114.408.408,0,0,0,.81.1Z" transform="translate(-319.845 -255.559)" fill="#010037"/>
  <path id="Path_488" data-name="Path 488" d="M409.038,152.243l-.4-1.32a.248.248,0,0,0-.118-.145l0,0h0a.248.248,0,0,0-.333.1l-.953,1.78a.873.873,0,0,0-.3-.263.882.882,0,1,0,.361,1.194c.005-.01.008-.021.013-.031s.008-.008.011-.013l1.019-1.9.226.746a.248.248,0,1,0,.475-.144Z" transform="translate(-399.856 -150.747)" fill="#010037"/>
  <g id="Group_274" data-name="Group 274" transform="translate(15.209 1.653)">
    <path id="Path_489" data-name="Path 489" d="M548.08,187.828a.324.324,0,0,0-.444-.145,1.01,1.01,0,0,1-1.317-.41.334.334,0,0,0-.442-.164.372.372,0,0,0-.092.521,1.642,1.642,0,0,0,1.425.807,1.666,1.666,0,0,0,.675-.155A.362.362,0,0,0,548.08,187.828Z" transform="translate(-545.719 -186.298)" fill="#010037"/>
    <path id="Path_490" data-name="Path 490" d="M557.346,176.07a.332.332,0,0,0,.288-.342.279.279,0,0,0-.306-.263.319.319,0,0,0-.3.31A.334.334,0,0,0,557.346,176.07Z" transform="translate(-556.275 -175.466)" fill="#010037"/>
    <path id="Path_491" data-name="Path 491" d="M570.724,181.275a.249.249,0,0,0,.265-.238c0-.252-.113-.374-.288-.373a.306.306,0,1,0,.023.611Z" transform="translate(-568.749 -180.316)" fill="#010037"/>
  </g>
  <path id="Path_492" data-name="Path 492" d="M567.013,229.42a.407.407,0,1,1,.815.012.407.407,0,1,1-.815-.012Z" transform="translate(-550.378 -223.779)" fill="#010037"/>
  <path id="Path_493" data-name="Path 493" d="M444.5,314.993a.407.407,0,1,1,.815.012.408.408,0,1,1-.815-.012Z" transform="translate(-436.106 -303.769)" fill="#010037"/>
  <path id="Path_507" data-name="Path 507" d="M461.553,196.337a1,1,0,1,1,1-1A1,1,0,0,1,461.553,196.337Zm0-1.539a.541.541,0,1,0,.542.541A.542.542,0,0,0,461.553,194.8Z" transform="translate(-451.082 -191.426)" fill="#010037"/>
  <path id="Path_508" data-name="Path 508" d="M364.082,347.67a1,1,0,1,1,1-1A1,1,0,0,1,364.082,347.67Zm0-1.539a.541.541,0,1,0,.542.541A.542.542,0,0,0,364.082,346.131Z" transform="translate(-360.193 -332.81)" fill="#010037"/>
  <path id="Path_509" data-name="Path 509" d="M354.659,221.72l-.516-.516.516-.516a.228.228,0,0,0-.323-.323l-.516.516-.516-.516a.228.228,0,0,0-.323.323l.516.516-.516.516a.228.228,0,0,0,.323.323l.516-.516.516.516a.228.228,0,0,0,.323-.323Z" transform="translate(-350.702 -215.645)" fill="#010037"/>
  <path id="Path_510" data-name="Path 510" d="M495.4,152.392l-.516-.516.516-.516a.228.228,0,0,0-.323-.323l-.516.516-.516-.516a.228.228,0,0,0-.323.323l.516.516-.516.516a.228.228,0,0,0,.323.323l.516-.516.516.516a.228.228,0,1,0,.323-.323Z" transform="translate(-481.957 -150.955)" fill="#010037"/>
  <path id="Path_511" data-name="Path 511" d="M476.972,303a1.015,1.015,0,0,0-1.121-.094.888.888,0,0,0-.4,1.153.63.63,0,0,1-.06.732c-.061.083-.11.147-.222.147a1.611,1.611,0,0,0-.309.028.956.956,0,0,0-.774.978.99.99,0,0,0,.809.931.917.917,0,0,0,.947-.375.95.95,0,0,0,0-1.158.39.39,0,0,1-.025-.464.364.364,0,0,1,.411-.165.885.885,0,0,0,.8-.276,1.43,1.43,0,0,0,.194-.24A1.015,1.015,0,0,0,476.972,303Zm-1.52,3.311a.555.555,0,0,1-.79-.012.534.534,0,0,1,.008-.768.516.516,0,0,1,.776,0A.529.529,0,0,1,475.452,306.31Zm1.292-2.149a.571.571,0,0,1-.8-.815.571.571,0,0,1,.8.815Z" transform="translate(-463.703 -292.755)" fill="#010037"/>
  <path id="Path_512" data-name="Path 512" d="M482.519,379.017a.407.407,0,1,1,.815.012.408.408,0,1,1-.815-.012Z" transform="translate(-471.57 -363.565)" fill="#010037"/>
  <path id="Path_513" data-name="Path 513" d="M553.693,346.983a.407.407,0,1,1,.815.012.408.408,0,1,1-.815-.012Z" transform="translate(-537.954 -333.646)" fill="#010037"/>
  <path id="Path_514" data-name="Path 514" d="M593.785,219.439l-.516-.516.516-.516a.228.228,0,0,0-.323-.323l-.516.516-.516-.516a.228.228,0,0,0-.323.323l.516.516-.516.516a.228.228,0,0,0,.323.323l.516-.516.516.516a.228.228,0,0,0,.323-.323Z" transform="translate(-573.715 -213.517)" fill="#010037"/>
  <path id="Path_515" data-name="Path 515" d="M638.932,284.227a1,1,0,1,1,1-1A1,1,0,0,1,638.932,284.227Zm0-1.539a.541.541,0,1,0,.542.541A.542.542,0,0,0,638.932,282.688Z" transform="translate(-616.509 -273.554)" fill="#010037"/>
  <path id="Path_516" data-name="Path 516" d="M360.365,291.375a.407.407,0,1,1,.815.012.408.408,0,1,1-.815-.012Z" transform="translate(-357.655 -281.71)" fill="#010037"/>
</svg>
