<svg xmlns="http://www.w3.org/2000/svg" xmlns:xlink="http://www.w3.org/1999/xlink" width="22" height="24" viewBox="0 0 22 24">
  <defs>
    <clipPath id="clip-path">
      <rect id="Rectangle_132" data-name="Rectangle 132" width="22" height="24" fill="#25e0b1"/>
    </clipPath>
  </defs>
  <g id="Group_391" data-name="Group 391" transform="translate(0.317 0.11)">
    <g id="Group_95" data-name="Group 95" transform="translate(-0.317 -0.11)" clip-path="url(#clip-path)">
      <path id="Path_458" data-name="Path 458" d="M14.128,11.816a6.326,6.326,0,0,0,3.2-5.472,6.463,6.463,0,0,0-12.923,0,6.326,6.326,0,0,0,3.2,5.472C3.2,13.048,0,16.7,0,21.008c0,1.717,2.582,2.163,3.555,2.331a39.7,39.7,0,0,0,6.282.425c1.317,0,3.441-.064,5.454-.245a.776.776,0,1,0-.144-1.545c-1.96.176-4.028.239-5.31.239a38.081,38.081,0,0,1-6.009-.4c-2.051-.354-2.246-.8-2.247-.8,0-4.458,4.164-8.085,9.283-8.085s9.283,3.627,9.283,8.085a.79.79,0,0,0,1.581,0c0-4.305-3.2-7.959-7.6-9.192M5.982,6.344a4.882,4.882,0,0,1,9.762,0,4.882,4.882,0,0,1-9.762,0" transform="translate(0.317 0.106)" fill="#25e0b1"/>
    </g>
  </g>
</svg>
