<svg xmlns="http://www.w3.org/2000/svg" width="17.854" height="17.854" viewBox="0 0 17.854 17.854">
  <path id="Path_515" data-name="Path 515" d="M464.569,217.006h.564a.832.832,0,0,1,.769.512l.005.011a.826.826,0,0,1-.18.908l-.4.4a1.636,1.636,0,0,0,2.314,2.314l.4-.4a.84.84,0,0,1,.913-.183l.011.005a.832.832,0,0,1,.512.769v.567a1.635,1.635,0,1,0,3.271,0v-.567a.832.832,0,0,1,.512-.769l.014-.005a.831.831,0,0,1,.908.183l.4.4a1.636,1.636,0,0,0,2.314-2.314h0l-.4-.4a.835.835,0,0,1-.183-.91l.005-.011a.834.834,0,0,1,.769-.512h.567a1.635,1.635,0,0,0,0-3.271h-.567a.837.837,0,0,1-.769-.515l-.005-.011a.836.836,0,0,1,.18-.908l.4-.4a1.636,1.636,0,0,0-2.314-2.314h0l-.4.4a.841.841,0,0,1-.91.18l-.011-.005a.832.832,0,0,1-.512-.769v-.564a1.635,1.635,0,1,0-3.271,0v.564a.834.834,0,0,1-.515.769l-.014.005a.831.831,0,0,1-.9-.18l-.4-.4a1.636,1.636,0,0,0-2.314,2.314l.4.4a.836.836,0,0,1,.183.91l-.005.011a.834.834,0,0,1-.769.515h-.564a1.635,1.635,0,0,0,0,3.271Zm6.541-4.181a2.544,2.544,0,1,1-2.546,2.546A2.545,2.545,0,0,1,471.111,212.825Z" transform="translate(-462.184 -206.444)" fill="none" stroke="#242f61" stroke-width="1.5"/>
</svg>
