<?xml version="1.0" encoding="UTF-8"?>
<svg id="Layer_1" data-name="Layer 1" xmlns="http://www.w3.org/2000/svg" xmlns:xlink="http://www.w3.org/1999/xlink" viewBox="0 0 162.09 165.23">
  <defs>
    <style>
      .cls-1, .cls-2 {
        fill: #fff;
      }

      .cls-3 {
        fill: #1cebbc;
      }

      .cls-4 {
        fill: #5f45ea;
      }

      .cls-5 {
        stroke: #1ee4bd;
      }

      .cls-5, .cls-6 {
        fill: none;
      }

      .cls-5, .cls-2 {
        stroke-width: .5px;
      }

      .cls-6 {
        stroke: #fff;
        stroke-miterlimit: 10;
        stroke-width: .75px;
      }

      .cls-7 {
        isolation: isolate;
        opacity: .71;
      }

      .cls-8 {
        fill: url(#linear-gradient);
        stroke: url(#linear-gradient-2);
      }

      .cls-2 {
        stroke: #5f45ea;
      }
    </style>
    <linearGradient id="linear-gradient" x1="-3327.05" y1="3207.89" x2="-3326.45" y2="3207.89" gradientTransform="translate(119876.89 115560.67) scale(36 -36)" gradientUnits="userSpaceOnUse">
      <stop offset="0" stop-color="#3692d0"/>
      <stop offset="1" stop-color="#1ee4bd"/>
    </linearGradient>
    <linearGradient id="linear-gradient-2" x1="102.43" y1="1972.46" x2="125.03" y2="1972.46" gradientTransform="translate(0 -1896)" gradientUnits="userSpaceOnUse">
      <stop offset="0" stop-color="#3692d0"/>
      <stop offset="1" stop-color="#1ee4bd"/>
    </linearGradient>
  </defs>
  <image class="cls-7" width="125" height="132" transform="translate(0 34.26)" xlink:href="../Downloads/FFDE2ADA8567FE69.png"/>
  <image class="cls-7" width="141" height="154" transform="translate(22.04)" xlink:href="../Downloads/FFDE2ADA8567FE6B.png"/>
  <path class="cls-1" d="m68.89,44.36h41.7c1.9,0,3.5,1.6,3.5,3.5v55.6c0,1.9-1.6,3.5-3.5,3.5h-41.7c-1.9,0-3.5-1.6-3.5-3.5v-55.7c.1-1.9,1.6-3.4,3.5-3.4Z"/>
  <path class="cls-1" d="m69.29,44.76h41c1.9,0,3.4,1.5,3.4,3.4h0v54.9c0,1.9-1.5,3.4-3.4,3.4h-41c-1.9,0-3.4-1.5-3.4-3.4v-54.9c0-1.9,1.5-3.4,3.4-3.4Z"/>
  <path class="cls-5" d="m68.89,44.76h41.7c1.7,0,3,1.4,3,3v55.6c0,1.7-1.4,3-3,3h-41.7c-1.7,0-3-1.4-3-3v-55.6c0-1.6,1.4-3,3-3Z"/>
  <path class="cls-1" d="m65.49,47.76c0-1.9,1.5-3.5,3.4-3.5h41.7c1.9,0,3.5,1.6,3.5,3.5h0v2.8h-48.6v-2.8Z"/>
  <path class="cls-5" d="m65.89,47.76c0-1.7,1.3-3,3-3h41.8c1.7,0,3,1.3,3,3v2.4h-47.8v-2.4Z"/>
  <circle class="cls-3" cx="69.69" cy="47.66" r=".8"/>
  <circle class="cls-3" cx="72.69" cy="47.66" r=".8"/>
  <circle class="cls-3" cx="75.79" cy="47.66" r=".8"/>
  <path class="cls-2" d="m81.99,96.46c-.1,5.4-2.7,10.5-6.9,13.9l-9.2,7.5-9.2-7.4c-4.3-3.4-6.8-8.5-6.9-13.9v-13.9h0c5-2.4,10.4-3.6,15.9-3.6h.2c5.1,0,10.2,1.1,14.9,3.1l1.2.5v13.8h0Z"/>
  <path class="cls-4" d="m70.89,91.96c-.1-.1-.3-.1-.5,0l-5.3,6-2.5-2.2c-.1-.1-.3-.1-.5,0-.1.1-.1.3,0,.4l2.8,2.5c.1.1.2.1.2.1h0c.1,0,.2,0,.2-.1l5.6-6.2c.2-.2.2-.4,0-.5h0Z"/>
  <circle class="cls-8" cx="113.69" cy="76.46" r="10.8"/>
  <line class="cls-6" x1="122.19" y1="69.76" x2="105.39" y2="83.16"/>
  <path class="cls-1" d="m119.79,77.96c0-.2-.2-.3-.4-.3h-.7c-.2,0-.5-.1-.7-.2-.3,0-.6-.2-.8-.3.1-.2.1-.4.1-.7.1-.1.3-.2.3-.3.5-.3,1-.4,1.6-.3.3.1.4-.2.3-.5s-.3-.3-.6-.1-.6.3-1,.3h-.7c0-.2-.1-.4-.2-.6.2-.1.3-.2.6-.3.2-.1.3-.1.5-.1h.4c.1,0,.2,0,.3-.1s.1-.3,0-.4v-.1c-.1-.1-.2-.4-.4-.3s-.2.1-.2.2c-.1.1-.2.2-.3.3-.3.3-.6.5-1,.6-.1-.3-.3-.5-.5-.7,0,0,0-.1.1-.2.2-.3.3-.6.6-.9.1-.2.3-.3.4-.4.2-.1.7-.2.6-.5s-.3-.4-.5-.3-.2.3-.3.5c-.1.3-.3.5-.6.7-.2.2-.5.4-.8.5-.3-.2-.7-.4-1-.5v-.3c0-.3.2-.6.4-.8.3-.3-.1-.5-.3-.5s-.2.4-.2.5c0,.3-.1.5-.3.8-.1.1-.2.1-.3,0l-.1-.1c-.1-.4-.1-.9-.1-1.4,0-.3.1-.5.2-.8.1-.1.1-.3.1-.5,0-.1-.1-.1-.1-.2-.2-.1-.4,0-.5.1v.6c.1.4.1.8,0,1.1s-.1.9-.4,1.1l-.4.4c-.7,0-1-1.2-.8-1.7,0-.1-.1-.3-.1-.3-.2,0-.3,0-.4.1-.1,0,0,.3,0,.3.6.7.6,2-.4,2.3-.4.1-.8,0-1.1-.2-.2-.1-.3-.2-.4-.3-.1-.2-.3-.5-.6-.4s-.1.6.2.6c.2,0,.4.1.6.2.3.2.6.5.9.8.1,0,.1.1.1.2,0,0-.1.1-.1.2h-.2c-.4,0-.8-.1-1.1-.2-.2,0-.5-.1-.7-.2-.2-.1-.4-.4-.6-.3-.2.1-.4.3-.4.5s.2.3.4.3h.8c.3,0,.5.1.7.2.3.1.6.2.8.4h0c-.1.2-.1.4-.1.5-.1.1-.3.2-.4.3-.5.3-1,.4-1.6.2-.3-.1-.4.2-.3.5s.3.3.6.1c.3-.2.6-.3,1-.3h.8c0,.2.1.4.1.5-.2.2-.4.2-.6.3-.2,0-.3.1-.5.1h-.4c-.1,0-.2,0-.3.1-.1.1-.1.3,0,.4v.1c.1.1.2.4.4.4s.2-.1.3-.2c.1-.1.2-.2.3-.3.3-.3.7-.5,1.1-.5.1.2.2.5.4.7,0,.1-.1.1-.1.2-.2.3-.3.6-.6.8-.1.2-.3.3-.5.4-.1.1-.7.2-.6.5s.3.4.6.3.2-.3.3-.5c.2-.2.3-.5.6-.7.3-.2.6-.4.9-.5.3.2.6.4.9.5v.3c0,.3-.2.5-.4.7-.3.2.1.5.3.5s.2-.4.2-.5c0-.3.1-.5.3-.7.1-.1.2-.1.3,0l.1.1c.1.5.1.9,0,1.3,0,.3-.1.5-.2.8-.1.2-.2.3-.1.4,0,.1.1.1.1.2.2.1.4.1.5-.1,0,0,0-.1.1-.1v-.5c0-.3,0-.7.1-1s.1-.9.5-1.1l.3-.1c.7.1.9,1.2.8,1.7,0,.1,0,.2.1.3.2,0,.3,0,.4-.1.1,0,.1-.3,0-.3-.3-.4-.4-.9-.4-1.4,0-.2.1-.4.1-.5.5-.6,1.3-.8,2-.4.2.1.3.2.4.3.2.2.3.5.6.3.3-.2.1-.6-.3-.6-.2,0-.4-.1-.6-.2-.4-.2-.7-.5-1-.8,0,0,0-.1-.1-.1,0-.1.1-.2.1-.3h.1c.4,0,.8,0,1.1.1.2,0,.5.1.7.2s.4.4.7.3c.1.3.3.1.2-.1h0Z"/>
</svg>