<svg xmlns="http://www.w3.org/2000/svg" width="125" height="197" viewBox="0 0 125 197">
  <g id="Group_321" data-name="Group 321" transform="translate(-152.378 -313.692)">
    <g id="Group_278" data-name="Group 278" transform="translate(167.3 313.692)">
      <path id="Path_478" data-name="Path 478" d="M395.7,422.924a10.606,10.606,0,0,0,1.773-5.863V400.072l8.148-3.179a1.081,1.081,0,0,0,.637-.7v0a1.131,1.131,0,0,0-.126-.949L397.4,381.614a1.244,1.244,0,0,1-.166-.189,1.036,1.036,0,0,0-.437-.369l-.244-.118-13.02-5.078a1.053,1.053,0,0,0-1.363.65,1.123,1.123,0,0,0,.619,1.424l10.6,4.133-32.32,12.606-32.321-12.606,9.13-3.56a1.123,1.123,0,0,0,.613-1.423,1.055,1.055,0,0,0-1.366-.648l-11.64,4.539a1.122,1.122,0,0,1-.152.079,1.032,1.032,0,0,0-.424.353,1.477,1.477,0,0,1-.175.2l-8.74,13.636a1.137,1.137,0,0,0-.126.952,1.083,1.083,0,0,0,.638.7l8.148,3.178v16.994a10.606,10.606,0,0,0,1.773,5.859,9.989,9.989,0,0,0,4.654,3.786s17.736,6.858,24.477,9.535a15.846,15.846,0,0,0,5.509.774,16.175,16.175,0,0,0,5.491-.761c7.445-2.936,24.5-9.55,24.5-9.55A9.986,9.986,0,0,0,395.7,422.924Zm-38.079,8.806c-2.509,2.287-6.917.274-6.917.274l-18.888-7.367a7.821,7.821,0,0,1-3.655-2.968,8.316,8.316,0,0,1-1.391-4.6V400.9l25.075,9.781a1.039,1.039,0,0,0,1.26-.422L360,399.511v25.376S360.019,429.546,357.622,431.73Zm6.439-.048c-2.159-1.449-1.937-6.746-1.937-6.746V399.511l6.889,10.75a1.039,1.039,0,0,0,1.26.422l25.075-9.781v16.168a8.326,8.326,0,0,1-1.39,4.6,7.83,7.83,0,0,1-3.653,2.968l-19.457,7.588S366.954,433.623,364.061,431.682Z" transform="translate(-313.82 -319.381)" fill="#fff"/>
      <path id="Path_479" data-name="Path 479" d="M416.187,238.325c-.006-.317-.012-.634-.03-.944-.123-2.134-1.254-4.4-3.5-4.652a4.939,4.939,0,0,0-1.927.245c-.123.035-.246.07-.37.1l1.61-5.418a2.638,2.638,0,0,0,0-1.82,2.5,2.5,0,0,0-2.29-1.47,14.377,14.377,0,0,0-3.676.265,16.864,16.864,0,0,1-2.068.246c.147-.43.339-.872.537-1.334a8.329,8.329,0,0,0,.971-4.625h0a3.022,3.022,0,0,0-.959-1.889,3.233,3.233,0,0,0-2.128-.707,8.553,8.553,0,0,0-7.542,4.342l0,0a1.535,1.535,0,1,0,2.77,1.321,5.543,5.543,0,0,1,4.714-2.614l.119,0c.005,0,.008,0,.007,0a5.822,5.822,0,0,1-.76,2.952,14.4,14.4,0,0,0-.888,2.462,2.642,2.642,0,0,0,.272,2.073,2.513,2.513,0,0,0,2.2,1.073,16.451,16.451,0,0,0,3.235-.294,14.632,14.632,0,0,1,2.375-.249l-1.49,5.02a3.187,3.187,0,0,0-.083,1.95,2.953,2.953,0,0,0,3.464,1.745c.269-.049.538-.122.8-.2a1.9,1.9,0,0,1,.761-.15c.323.035.742.826.8,1.792.015.271.021.547.025.826a6.811,6.811,0,0,0,.973,4.067l.021-.014a1.511,1.511,0,0,0,1.151.676,1.539,1.539,0,0,0,1.632-1.44,1.521,1.521,0,0,0-.341-1.044A4.707,4.707,0,0,1,416.187,238.325Z" transform="translate(-375.862 -199.885)" fill="#f2cc32"/>
      <path id="Path_480" data-name="Path 480" d="M527.546,255.121a1.5,1.5,0,0,0-.2.713,1.539,1.539,0,0,0,1.539,1.539,1.521,1.521,0,0,0,1.323-.8l.015.007c.022-.046.049-.09.072-.136,0-.007.008-.013.011-.02a28.533,28.533,0,0,1,4.686-6.822l0,0a1.526,1.526,0,1,0-2.229-2.067l0,0A31.446,31.446,0,0,0,527.546,255.121Z" transform="translate(-475.236 -222.834)" fill="#f29233"/>
      <path id="Path_481" data-name="Path 481" d="M361.3,329c-.1-.182-.2-.358-.307-.537a53.549,53.549,0,0,0-3.493-5.109,29.35,29.35,0,0,0-3.867-3.923,22.724,22.724,0,0,0-13.942-5.5c-4.747-.075-8.97,1.763-11.285,4.953a9.512,9.512,0,0,0-1.583,7.153,7.62,7.62,0,0,0,3.208,5.095l.018-.027a1.5,1.5,0,0,0,.879.309,1.539,1.539,0,0,0,1.539-1.539,1.515,1.515,0,0,0-.757-1.295,4.609,4.609,0,0,1-1.884-3.086,6.486,6.486,0,0,1,1.05-4.817c1.728-2.383,5.012-3.772,8.756-3.693a19.674,19.674,0,0,1,12.045,4.794,25.133,25.133,0,0,1,2.183,2.073c.014.013.03.024.045.038a16.789,16.789,0,0,1,1.273,1.458c.041.051.085.1.126.149l-.006,0c.643.824,1.293,1.745,1.853,2.578l.034-.012c.294.449.58.914.861,1.387l.084.135c.2.323.393.672.574,1.02.351.642.694,1.3,1.021,1.986l.026-.012a1.521,1.521,0,0,0,1.331.811,1.539,1.539,0,0,0,1.539-1.539,1.518,1.518,0,0,0-.4-1.01C361.921,330.219,361.576,329.515,361.3,329Z" transform="translate(-324.961 -273.025)" fill="#e9287c"/>
      <path id="Path_482" data-name="Path 482" d="M519.418,270.93a6.547,6.547,0,0,0,12.466,1.806,5.443,5.443,0,0,0,.426-3.335,5.6,5.6,0,0,0-4.056-4.091,7.522,7.522,0,0,0-2.532-.249,22.483,22.483,0,0,1,11.363-4.981c.021,0,.039.012.06.012a1.539,1.539,0,0,0,0-3.078,1.44,1.44,0,0,0-.194.039l0-.039a25.535,25.535,0,0,0-14.29,6.687,12.158,12.158,0,0,0-2.489,3.1,26.806,26.806,0,0,0-8.485,7.916c-.667.9-1.3,1.815-1.914,2.746-.913,1.448-2.316,3.9-2.759,4.68a56.919,56.919,0,0,0-3.052,6.662l.012,0a1.525,1.525,0,1,0,2.877,1,53.774,53.774,0,0,1,3-6.5l-.005,0a56.232,56.232,0,0,1,3.469-5.626l.018-.021c.261-.376.524-.751.8-1.118A28.58,28.58,0,0,1,519.418,270.93Zm3.036-1.6c.02-.1.044-.2.074-.293a12.771,12.771,0,0,1,1.452-.551,6.118,6.118,0,0,1,3.449-.237,2.6,2.6,0,0,1,1.889,1.763,2.464,2.464,0,0,1-.22,1.47,3.513,3.513,0,0,1-6.644-2.152Z" transform="translate(-457.569 -230.377)" fill="#23a69d"/>
      <path id="Path_483" data-name="Path 483" d="M488.8,251.295a1.539,1.539,0,0,0,1.539-1.539,1.494,1.494,0,0,0-.218-.743l.01,0-3.6-8.291a1.525,1.525,0,1,0-2.872,1.02l-.011,0,.022.051c0,.011.009.021.014.031l3.65,8.4.023-.01A1.521,1.521,0,0,0,488.8,251.295Z" transform="translate(-442.436 -217.381)" fill="#2e1c59"/>
      <path id="Path_484" data-name="Path 484" d="M514.43,220.3a1.539,1.539,0,0,0,1.539-1.539c0-.029-.015-.052-.016-.081h.009a11.328,11.328,0,0,1,1.908-6.966l-.011-.007a1.5,1.5,0,0,0,.33-.909,1.539,1.539,0,0,0-1.539-1.539,1.516,1.516,0,0,0-1.294.757l-.015-.01a14.379,14.379,0,0,0-2.429,8.651c0,.036-.021.067-.021.1A1.539,1.539,0,0,0,514.43,220.3Z" transform="translate(-464.413 -194.591)" fill="#902c8d"/>
      <path id="Path_485" data-name="Path 485" d="M571.034,326.94a1.477,1.477,0,0,0-.329.066l-.009-.032c-.077.023-.152.057-.229.08-.016.006-.031.01-.047.017a55.082,55.082,0,0,0-15.184,7.54c-.268.2-1.024.749-1.638,1.2-.181.138-.363.275-.542.414-.857.683-2.373,1.975-3,2.528a44.143,44.143,0,0,0-4.035,4.139l.028.023a1.5,1.5,0,0,0-.329.908,1.539,1.539,0,0,0,1.539,1.539,1.512,1.512,0,0,0,1.2-.613,41.474,41.474,0,0,1,4.153-4.2l-.008,0s.351-.312.679-.589a38.1,38.1,0,0,1,3.708-2.864l.026-.015a52.05,52.05,0,0,1,14.486-7.155,1.522,1.522,0,0,0,1.073-1.445A1.539,1.539,0,0,0,571.034,326.94Z" transform="translate(-488.94 -282.775)" fill="#2e1c59"/>
      <path id="Path_486" data-name="Path 486" d="M667.142,319.69a1.465,1.465,0,0,0-.19.038v-.019a40.315,40.315,0,0,0-4.3.522c-.008,0-.014,0-.022,0a1.448,1.448,0,0,0-.164.033c-.093.016-.184.026-.277.043h0l0,.012a1.52,1.52,0,0,0-1.1,1.451,1.539,1.539,0,0,0,1.539,1.539c.039,0,.071-.019.109-.022l0,.022a37.348,37.348,0,0,1,4.356-.545c.014,0,.027.008.042.008a1.539,1.539,0,0,0,0-3.078Z" transform="translate(-575.393 -277.342)" fill="#f2cc32"/>
      <path id="Path_487" data-name="Path 487" d="M322.884,271.14l.019.005a7.423,7.423,0,0,1,5.734-4.94,12.716,12.716,0,0,1,8.3,1.495,18.755,18.755,0,0,1,7.077,6.464l.021-.014a1.513,1.513,0,0,0,1.195.8,1.53,1.53,0,0,0,1.254-2.565,21.805,21.805,0,0,0-8.134-7.388,15.753,15.753,0,0,0-10.328-1.778,10.394,10.394,0,0,0-8.064,7.127h0l.016,0a1.506,1.506,0,0,0-.122.427,1.529,1.529,0,0,0,3.034.367Z" transform="translate(-319.845 -234.833)" fill="#902c8d"/>
      <path id="Path_488" data-name="Path 488" d="M418.389,156.353l-1.5-4.946a.928.928,0,0,0-.441-.543s-.006-.006-.01-.008l-.012,0a.931.931,0,0,0-1.247.385l-3.571,6.67a3.271,3.271,0,0,0-1.11-.987,3.305,3.305,0,1,0,1.354,4.474c.021-.038.03-.079.049-.118.012-.019.031-.03.041-.05l3.818-7.131.846,2.8a.93.93,0,1,0,1.781-.539Z" transform="translate(-384.087 -150.747)" fill="#e9287c"/>
      <g id="Group_274" data-name="Group 274" transform="translate(56.726 6.196)">
        <path id="Path_489" data-name="Path 489" d="M554.566,189.9a1.215,1.215,0,0,0-1.665-.542,3.783,3.783,0,0,1-4.935-1.537,1.252,1.252,0,0,0-1.657-.614,1.4,1.4,0,0,0-.345,1.951,6.154,6.154,0,0,0,5.338,3.022,6.241,6.241,0,0,0,2.529-.581A1.358,1.358,0,0,0,554.566,189.9Z" transform="translate(-545.719 -184.164)" fill="#dd2c80"/>
        <path id="Path_490" data-name="Path 490" d="M558.209,177.731a1.246,1.246,0,0,0,1.081-1.281,1.047,1.047,0,0,0-1.146-.984,1.194,1.194,0,0,0-1.112,1.161A1.25,1.25,0,0,0,558.209,177.731Z" transform="translate(-554.196 -175.466)" fill="#dd2c80"/>
        <path id="Path_491" data-name="Path 491" d="M571.612,182.952a.932.932,0,0,0,.992-.89c.006-.946-.422-1.4-1.08-1.4a1.145,1.145,0,1,0,.087,2.288Z" transform="translate(-564.214 -179.361)" fill="#dd2c80"/>
      </g>
      <path id="Path_492" data-name="Path 492" d="M567.013,230.534a1.527,1.527,0,1,1,3.053.046,1.527,1.527,0,1,1-3.053-.046Z" transform="translate(-504.947 -209.396)" fill="#2e1c59"/>
      <path id="Path_493" data-name="Path 493" d="M444.5,316.107a1.527,1.527,0,1,1,3.053.046,1.527,1.527,0,1,1-3.053-.046Z" transform="translate(-413.194 -273.519)" fill="#c47e4f"/>
      <path id="Path_507" data-name="Path 507" d="M464.294,201.819a3.739,3.739,0,1,1,3.739-3.74A3.743,3.743,0,0,1,464.294,201.819Zm0-5.767a2.028,2.028,0,1,0,2.029,2.027A2.031,2.031,0,0,0,464.294,196.052Z" transform="translate(-425.219 -183.414)" fill="#23a69d"/>
      <path id="Path_508" data-name="Path 508" d="M366.823,353.152a3.739,3.739,0,1,1,3.74-3.74A3.742,3.742,0,0,1,366.823,353.152Zm0-5.767a2.028,2.028,0,1,0,2.029,2.027A2.031,2.031,0,0,0,366.823,347.385Z" transform="translate(-352.246 -296.814)" fill="#f1cb33"/>
      <path id="Path_509" data-name="Path 509" d="M359.452,225.626l-1.934-1.935,1.933-1.933a.855.855,0,0,0-1.209-1.209l-1.933,1.933-1.934-1.934a.855.855,0,1,0-1.209,1.209l1.935,1.934-1.935,1.935a.855.855,0,0,0,1.209,1.209l1.934-1.934,1.935,1.934a.855.855,0,0,0,1.209-1.209Z" transform="translate(-344.625 -202.864)" fill="#2e1c59"/>
      <path id="Path_510" data-name="Path 510" d="M500.2,156.3l-1.934-1.935,1.933-1.933a.855.855,0,1,0-1.209-1.209l-1.933,1.933-1.934-1.934a.855.855,0,0,0-1.209,1.209l1.934,1.934-1.934,1.935a.855.855,0,0,0,1.209,1.209l1.934-1.934,1.935,1.934A.855.855,0,0,0,500.2,156.3Z" transform="translate(-450.009 -150.914)" fill="#902c8d"/>
      <path id="Path_511" data-name="Path 511" d="M484.885,303.605a3.8,3.8,0,0,0-4.2-.352,3.327,3.327,0,0,0-1.482,4.319,2.362,2.362,0,0,1-.226,2.743c-.23.313-.412.55-.831.55a6.033,6.033,0,0,0-1.156.1,3.581,3.581,0,0,0-2.9,3.666,3.709,3.709,0,0,0,3.031,3.487,3.438,3.438,0,0,0,3.549-1.4,3.561,3.561,0,0,0-.009-4.339,1.46,1.46,0,0,1-.093-1.74,1.365,1.365,0,0,1,1.541-.62,3.315,3.315,0,0,0,3.006-1.035,5.361,5.361,0,0,0,.727-.9A3.8,3.8,0,0,0,484.885,303.605Zm-5.7,12.407a2.079,2.079,0,0,1-2.961-.045,2,2,0,0,1,.029-2.876,1.934,1.934,0,0,1,2.909,0A1.982,1.982,0,0,1,479.19,316.012Zm4.84-8.053a2.141,2.141,0,0,1-3-3.053,2.14,2.14,0,0,1,3,3.053Z" transform="translate(-435.351 -264.67)" fill="#2e1c59"/>
      <path id="Path_512" data-name="Path 512" d="M482.519,380.131a1.527,1.527,0,1,1,3.053.046,1.527,1.527,0,1,1-3.053-.046Z" transform="translate(-441.67 -321.494)" fill="#f29233"/>
      <path id="Path_513" data-name="Path 513" d="M553.693,348.1a1.527,1.527,0,1,1,3.053.046,1.527,1.527,0,1,1-3.053-.046Z" transform="translate(-494.972 -297.49)" fill="#e9287c"/>
      <path id="Path_514" data-name="Path 514" d="M598.578,223.346l-1.934-1.934,1.933-1.933a.855.855,0,0,0-1.209-1.209l-1.933,1.933-1.934-1.934a.855.855,0,0,0-1.209,1.209l1.935,1.935-1.935,1.934a.855.855,0,0,0,1.209,1.209l1.934-1.935,1.934,1.935a.855.855,0,1,0,1.21-1.209Z" transform="translate(-523.684 -201.155)" fill="#c47e4f"/>
      <path id="Path_515" data-name="Path 515" d="M641.673,289.709a3.739,3.739,0,1,1,3.74-3.74A3.742,3.742,0,0,1,641.673,289.709Zm0-5.767a2.028,2.028,0,1,0,2.029,2.027A2.031,2.031,0,0,0,641.673,283.942Z" transform="translate(-558.041 -249.273)" fill="#902c8d"/>
      <path id="Path_516" data-name="Path 516" d="M360.365,292.489a1.527,1.527,0,1,1,3.053.046,1.527,1.527,0,1,1-3.053-.046Z" transform="translate(-350.208 -255.821)" fill="#f2cc32"/>
    </g>
    <g id="Group_320" data-name="Group 320" transform="translate(152.378 448.805)">
      <g id="Group_318" data-name="Group 318" transform="translate(0 33.391)">
        <path id="Path_572" data-name="Path 572" d="M489.107,407.334a5.986,5.986,0,0,0-4.731-2.4c-.119-.005-.243,0-.36,0a.415.415,0,0,1,.057-.053c.139-.115.28-.227.419-.338.217-.173.434-.343.642-.526a10.325,10.325,0,0,0,3.828-6,5.555,5.555,0,0,0-.4-3.136,6.994,6.994,0,0,0-3.067-3.353,12.856,12.856,0,0,0-4.9-1.611,46.808,46.808,0,0,0-5.4-.415c-1.744-.019-3.521.035-5.237.087-.943.029-1.886.056-2.83.073a.673.673,0,0,0-.493.163.619.619,0,0,0-.122.468c.068,1.124.121,2.248.17,3.375q.133,3.076.263,6.154l.131,3.109q.248,5.871.494,11.743c.023.525.114.613.644.628l1.049.029c.927.027,1.886.054,2.83.063l.975.01c.975.009,1.969.02,2.964.02.791,0,1.582-.007,2.368-.025a20.672,20.672,0,0,0,7.2-1.238,7.245,7.245,0,0,0,3.567-2.685A3.7,3.7,0,0,0,489.107,407.334Zm-9.608-8.645a1.726,1.726,0,0,1-.944,1.043,2.488,2.488,0,0,1-1.794.159c-.115-.032-.167-.079-.165-.263q0-.645,0-1.29v-.689h-.032l0-.377c0-.43,0-.858,0-1.288,0-.169.03-.2.191-.216a2.393,2.393,0,0,1,2.507,1.186A2.242,2.242,0,0,1,479.5,398.689Zm-2.085,13.084c0-.6-.007-1.2-.015-1.794l-.011-.952c0-.4,0-.4.426-.415.032,0,.064,0,.1,0h.1a2.26,2.26,0,0,1,1.852.812,1.551,1.551,0,0,1,.256,1.275,1.674,1.674,0,0,1-.851,1.091,2.645,2.645,0,0,1-1.6.279C477.461,412.044,477.413,411.986,477.413,411.773Z" transform="translate(-408.568 -388.424)" fill="#fff"/>
        <g id="Group_305" data-name="Group 305" transform="translate(36.59)">
          <g id="Group_303" data-name="Group 303" transform="translate(0.121 0.119)">
            <path id="Path_573" data-name="Path 573" d="M447.383,416.051c-1.092-.332-2.186-.662-3.278-1-.856-.264-1.708-.544-2.564-.805-.345-.1-.354-.108-.161-.524.773-1.662,1.539-3.328,2.317-4.987.767-1.637,1.545-3.266,2.319-4.9.011-.021.02-.044.029-.066.265-.61.25-.618-.136-1.006-.845-.847-1.679-1.714-2.518-2.572l-3.071-3.146-1.609-1.645c-.174-.179-.075-.317.072-.452.586-.54,4.338-4.683,6.079-6.272.334-.305.342-.3.583.065a42.635,42.635,0,0,0,4.563,5.443,2.451,2.451,0,0,0,.165.222c.109.133.19.108.282-.088q1.1-2.361,2.218-4.713a10.128,10.128,0,0,1,.466-.916c.066-.108.229-.211.32-.188.851.206,8,2.267,9.245,2.6.449.122.445.15.132.639-1.29,2.016-10.586,17.153-12.108,19.527q-1.479,2.306-2.973,4.594a1.392,1.392,0,0,1-.346.286Z" transform="translate(-438.447 -388.286)" fill="#fff"/>
            <path id="Path_574" data-name="Path 574" d="M447.258,416.4l-.073-.263-.806-.243q-1.192-.363-2.381-.728c-.39-.119-.779-.243-1.166-.367-.465-.148-.93-.3-1.4-.438-.2-.06-.328-.1-.387-.231s0-.279.119-.533l.866-1.867q.725-1.559,1.451-3.119.805-1.717,1.619-3.424l.721-1.52c.221-.514.221-.514-.086-.822-.617-.619-1.219-1.237-1.821-1.857l-5.387-5.516a.434.434,0,0,1-.141-.316.56.56,0,0,1,.218-.385c.209-.191.835-.86,1.63-1.7,1.408-1.5,3.335-3.551,4.451-4.569.194-.176.314-.277.467-.263s.238.149.378.362a42.54,42.54,0,0,0,4.541,5.416c.06.086.107.148.153.207,0-.008.008-.015.012-.025q1.1-2.361,2.219-4.713l.057-.12a9.1,9.1,0,0,1,.418-.813.557.557,0,0,1,.509-.267c.516.124,3.273.911,5.708,1.6,1.6.457,3.046.868,3.543,1,.223.061.4.11.462.27s-.039.332-.229.63c-.611.954-3.009,4.838-5.549,8.95-2.83,4.585-5.757,9.327-6.559,10.576q-1.479,2.307-2.974,4.6a.884.884,0,0,1-.278.251c-.035.024-.07.048-.1.075Zm-5.879-2.422c.039.014.1.034.156.051.468.142.934.29,1.4.438q.58.185,1.163.368,1.188.365,2.379.725l.937.283a.467.467,0,0,0,.139-.124q1.493-2.288,2.971-4.594c.8-1.248,3.728-5.987,6.558-10.571,2.538-4.114,4.937-8,5.55-8.955a2.752,2.752,0,0,0,.183-.311,1.921,1.921,0,0,0-.214-.066c-.5-.136-1.939-.547-3.546-1-2.431-.693-5.187-1.478-5.694-1.6a.383.383,0,0,0-.131.109c-.148.244-.277.517-.4.781l-.056.121q-1.113,2.353-2.218,4.71c-.032.068-.115.249-.283.27a.328.328,0,0,1-.289-.145,2.912,2.912,0,0,1-.176-.234,42.874,42.874,0,0,1-4.558-5.437c-.048-.072-.1-.158-.139-.2-.046.032-.127.1-.188.16-1.105,1.011-3.026,3.055-4.43,4.55-.8.85-1.431,1.523-1.648,1.723-.1.09-.107.126-.107.138s.008.03.044.066l5.387,5.517c.6.618,1.2,1.236,1.809,1.844.446.448.458.538.173,1.2l-.034.075-.7,1.471q-.814,1.711-1.619,3.423-.728,1.556-1.45,3.12l-.867,1.867C441.446,413.817,441.4,413.917,441.379,413.974Z" transform="translate(-438.391 -388.229)" fill="#010037"/>
          </g>
          <g id="Group_304" data-name="Group 304">
            <path id="Path_575" data-name="Path 575" d="M445.139,388.42c.079,0,.142.093.268.285a42.7,42.7,0,0,0,4.563,5.443,2.445,2.445,0,0,0,.165.222c.045.055.085.083.124.083.054,0,.1-.057.158-.171q1.1-2.361,2.218-4.713a9.926,9.926,0,0,1,.466-.916.424.424,0,0,1,.293-.191.1.1,0,0,1,.027,0c.851.206,8,2.267,9.245,2.6.449.122.445.15.132.639-1.29,2.016-10.586,17.153-12.108,19.527q-1.479,2.306-2.973,4.594a1.392,1.392,0,0,1-.346.286l-.027-.1c-1.092-.332-2.186-.662-3.278-1-.856-.264-1.708-.544-2.564-.805-.345-.1-.354-.108-.161-.524.773-1.662,1.54-3.328,2.317-4.987.767-1.637,1.545-3.266,2.319-4.9.011-.021.02-.044.029-.066.265-.61.25-.618-.136-1.006-.845-.847-1.679-1.714-2.517-2.572l-3.072-3.146-1.609-1.645c-.174-.179-.075-.317.072-.452.586-.54,4.338-4.683,6.079-6.272.158-.145.243-.22.315-.22m0-.118h0c-.123,0-.227.1-.4.252-1.117,1.02-3.049,3.077-4.459,4.579-.789.839-1.411,1.5-1.619,1.694a.4.4,0,0,0-.076.618l1.608,1.645,1.671,1.711,1.4,1.435.718.737c.588.6,1.2,1.23,1.8,1.836.344.345.344.345.112.879l-.027.062-.714,1.506q-.805,1.7-1.605,3.393-.781,1.667-1.554,3.34l-.764,1.648c-.11.238-.171.369-.118.485s.164.142.352.2c.468.142.934.29,1.4.439.388.123.775.247,1.163.366.762.235,1.524.466,2.287.7l.928.282.01.038.048.179.148-.118c.034-.027.072-.052.108-.077a.858.858,0,0,0,.263-.236c.949-1.453,1.95-3,2.973-4.6.8-1.254,3.745-6.018,6.589-10.624,2.526-4.09,4.911-7.953,5.519-8.9.181-.283.28-.439.224-.58-.051-.126-.2-.171-.427-.234-.5-.136-1.925-.542-3.575-1.012-2.419-.689-5.162-1.47-5.673-1.594a.275.275,0,0,0-.057-.006.541.541,0,0,0-.4.25,8.79,8.79,0,0,0-.42.817l-.051.109q-1.113,2.354-2.219,4.713a.454.454,0,0,1-.052.091c-.006-.007-.014-.015-.024-.027a2.478,2.478,0,0,1-.158-.212,43.164,43.164,0,0,1-4.566-5.448c-.14-.213-.22-.334-.367-.334Z" transform="translate(-438.287 -388.129)" fill="#010037"/>
            <path id="Path_576" data-name="Path 576" d="M447.146,416.567l-.1-.381-1.292-.392c-.611-.186-1.221-.37-1.831-.56-.388-.119-.776-.243-1.165-.366l-.111-.035c-.429-.135-.857-.271-1.287-.4-.2-.06-.377-.112-.458-.289s0-.376.118-.633l.764-1.647q.775-1.672,1.554-3.34.735-1.564,1.477-3.123l.868-1.835c.185-.426.185-.426-.075-.685-.575-.578-1.154-1.172-1.716-1.75l-5.484-5.618a.541.541,0,0,1-.173-.4.683.683,0,0,1,.253-.469c.2-.185.795-.816,1.614-1.689l.044-.047c1.4-1.49,3.314-3.527,4.424-4.541.188-.172.325-.3.515-.3.243,0,.362.182.513.412a43.2,43.2,0,0,0,4.544,5.422c.009.014.019.026.027.038q1.068-2.28,2.145-4.555l.052-.109a8.42,8.42,0,0,1,.43-.834.67.67,0,0,1,.642-.323c.51.123,3.2.89,5.681,1.6l.192.054c1.567.446,2.9.824,3.381.954.236.065.458.126.542.339s-.039.424-.234.73c-.593.925-2.755,4.426-5.522,8.907-3.144,5.1-5.812,9.412-6.59,10.626-1.024,1.6-2.026,3.143-2.975,4.6a1.015,1.015,0,0,1-.311.286c-.039.026-.069.046-.1.068Zm-5.806-2.632c.039.014.1.034.156.051.468.142.934.29,1.4.438q.58.185,1.163.368,1.188.365,2.379.725l.937.283a.467.467,0,0,0,.139-.124q1.493-2.288,2.971-4.594c.8-1.248,3.728-5.987,6.558-10.571,2.538-4.114,4.937-8,5.55-8.955a2.752,2.752,0,0,0,.183-.311,1.921,1.921,0,0,0-.214-.066c-.5-.136-1.939-.547-3.546-1-2.431-.693-5.187-1.478-5.694-1.6a.393.393,0,0,0-.131.111,8.615,8.615,0,0,0-.4.78l-.056.121q-1.113,2.353-2.218,4.71c-.034.074-.125.271-.315.271a.348.348,0,0,1-.257-.146,2.912,2.912,0,0,1-.176-.234,42.39,42.39,0,0,1-4.556-5.437c-.053-.078-.107-.16-.141-.2-.046.032-.127.1-.188.16-1.106,1.012-3.032,3.062-4.438,4.56-.795.846-1.423,1.513-1.638,1.713-.1.09-.109.127-.11.138s.01.032.044.066c.535.547,1.074,1.1,1.61,1.645l3.778,3.872c.6.618,1.2,1.236,1.809,1.844.446.448.458.538.173,1.2l-.034.075-.7,1.471q-.814,1.711-1.619,3.423-.728,1.556-1.45,3.12l-.867,1.867C441.406,413.778,441.36,413.878,441.34,413.936Zm3.759-25.4Z" transform="translate(-438.231 -388.072)" fill="#010037"/>
          </g>
        </g>
        <g id="Group_308" data-name="Group 308" transform="translate(15.993 2.614)">
          <g id="Group_306" data-name="Group 306" transform="translate(0.122 0.115)">
            <path id="Path_577" data-name="Path 577" d="M423.364,391.926a12.31,12.31,0,0,1,4.082.685,11.859,11.859,0,0,1,6.186,4.761,12.212,12.212,0,0,1,1.576,3.438,11.757,11.757,0,0,1,.293,5.213,10.368,10.368,0,0,1-3.7,6.446,12.869,12.869,0,0,1-4.108,2.294,16.312,16.312,0,0,1-4.826.888,20.364,20.364,0,0,1-3.033-.247,9.64,9.64,0,0,1-3.022-.95,9.168,9.168,0,0,1-4-3.644,8.614,8.614,0,0,1-1.041-2.5,11.279,11.279,0,0,1-.318-4.044c.09-.649.143-1.3.284-1.944a15.267,15.267,0,0,1,.58-1.968,14.513,14.513,0,0,1,1.98-3.668,12.122,12.122,0,0,1,3.763-3.369A10.17,10.17,0,0,1,423.364,391.926ZM421.3,403.192a2.346,2.346,0,0,0,2.416,2.349,2.37,2.37,0,1,0,0-4.738A2.36,2.36,0,0,0,421.3,403.192Z" transform="translate(-411.206 -391.749)" fill="#fff"/>
            <path id="Path_578" data-name="Path 578" d="M422.55,415.773a18.56,18.56,0,0,1-2.3-.192l-.491-.061a9.658,9.658,0,0,1-3.076-.966,9.389,9.389,0,0,1-4.076-3.71,8.769,8.769,0,0,1-1.061-2.555,11.535,11.535,0,0,1-.32-4.1c.026-.19.049-.38.072-.568.056-.457.114-.929.215-1.389a15.36,15.36,0,0,1,.587-1.99,14.7,14.7,0,0,1,2-3.711,12.317,12.317,0,0,1,3.816-3.417,10.233,10.233,0,0,1,5.395-1.413,12.635,12.635,0,0,1,4.134.694,12.071,12.071,0,0,1,6.275,4.829,12.4,12.4,0,0,1,1.6,3.485,11.985,11.985,0,0,1,.3,5.289,10.566,10.566,0,0,1-3.762,6.553,13.093,13.093,0,0,1-4.162,2.326,16.54,16.54,0,0,1-4.876.9C422.728,415.771,422.64,415.773,422.55,415.773Zm.556-23.732a10.055,10.055,0,0,0-5.02,1.369,12,12,0,0,0-3.708,3.323,14.357,14.357,0,0,0-1.957,3.623,15.319,15.319,0,0,0-.574,1.944c-.1.445-.153.909-.207,1.358-.024.191-.047.382-.073.574a11.185,11.185,0,0,0,.314,3.981,8.443,8.443,0,0,0,1.022,2.453,9.046,9.046,0,0,0,3.927,3.576,9.37,9.37,0,0,0,2.967.933l.494.061a15.694,15.694,0,0,0,2.513.185,16.223,16.223,0,0,0,4.774-.878,12.762,12.762,0,0,0,4.054-2.263,10.23,10.23,0,0,0,3.642-6.342,11.633,11.633,0,0,0-.289-5.135,12.048,12.048,0,0,0-1.554-3.389,11.738,11.738,0,0,0-6.1-4.694,12.157,12.157,0,0,0-3.928-.675h-.1Zm.55,13.617a2.681,2.681,0,0,1-1.935-.822,2.3,2.3,0,0,1-.655-1.7,2.357,2.357,0,0,1,.653-1.729,2.709,2.709,0,0,1,1.929-.834h.032a2.625,2.625,0,0,1,2.578,2.54,2.469,2.469,0,0,1-.732,1.749A2.607,2.607,0,0,1,423.657,405.658Zm.022-4.74h-.025a2.366,2.366,0,0,0-1.683.724,2.015,2.015,0,0,0-.557,1.484v.016a1.954,1.954,0,0,0,.56,1.454,2.327,2.327,0,0,0,1.683.715,2.258,2.258,0,0,0,1.621-.694,2.116,2.116,0,0,0,.633-1.5A2.3,2.3,0,0,0,423.679,400.918Z" transform="translate(-411.15 -391.692)" fill="#010037"/>
          </g>
          <g id="Group_307" data-name="Group 307">
            <path id="Path_579" data-name="Path 579" d="M423.122,391.886l.2,0h.1a12.332,12.332,0,0,1,3.987.685,11.859,11.859,0,0,1,6.186,4.761,12.213,12.213,0,0,1,1.576,3.438,11.747,11.747,0,0,1,.293,5.213,10.368,10.368,0,0,1-3.7,6.446,12.869,12.869,0,0,1-4.108,2.294,16.311,16.311,0,0,1-4.826.888q-.133,0-.267,0a23.434,23.434,0,0,1-2.766-.252,9.639,9.639,0,0,1-3.022-.95,9.168,9.168,0,0,1-4-3.644,8.614,8.614,0,0,1-1.041-2.5,11.279,11.279,0,0,1-.318-4.044c.09-.649.143-1.3.284-1.944a15.267,15.267,0,0,1,.58-1.968,14.515,14.515,0,0,1,1.98-3.668,12.123,12.123,0,0,1,3.763-3.369,10.2,10.2,0,0,1,5.1-1.392m.551,13.617h0a2.437,2.437,0,0,0,2.427-2.368,2.461,2.461,0,0,0-2.4-2.37h-.029a2.37,2.37,0,1,0,0,4.738m-.551-13.734h0a10.348,10.348,0,0,0-5.166,1.408,12.291,12.291,0,0,0-3.8,3.4,14.645,14.645,0,0,0-2,3.7,15.5,15.5,0,0,0-.583,1.982c-.1.458-.159.931-.214,1.388-.023.188-.046.377-.072.565a11.458,11.458,0,0,0,.319,4.085,8.657,8.657,0,0,0,1.055,2.537,9.327,9.327,0,0,0,4.052,3.69,9.636,9.636,0,0,0,3.061.96l.492.061a18.52,18.52,0,0,0,2.289.191c.09,0,.181,0,.271,0a16.443,16.443,0,0,0,4.862-.895,13.033,13.033,0,0,0,4.146-2.317A10.51,10.51,0,0,0,435.582,406a11.9,11.9,0,0,0-.3-5.263,12.4,12.4,0,0,0-1.591-3.471,12.028,12.028,0,0,0-6.248-4.808,12.442,12.442,0,0,0-4.026-.692h-.1l-.2,0Zm.551,13.734v-.118a2.386,2.386,0,0,1-1.693-.7,2.018,2.018,0,0,1-.6-1.523,2.081,2.081,0,0,1,.6-1.564,2.414,2.414,0,0,1,1.693-.713h.028a2.332,2.332,0,0,1,2.281,2.256,2.173,2.173,0,0,1-.675,1.567,2.312,2.312,0,0,1-1.63.681v.118Z" transform="translate(-411.045 -391.595)" fill="#010037"/>
            <path id="Path_580" data-name="Path 580" d="M422.5,415.852a18.589,18.589,0,0,1-2.311-.192l-.492-.061a9.821,9.821,0,0,1-3.114-.977,9.5,9.5,0,0,1-4.127-3.756,8.871,8.871,0,0,1-1.075-2.589,11.638,11.638,0,0,1-.323-4.146c.026-.188.049-.375.072-.564.057-.47.114-.942.217-1.4a15.623,15.623,0,0,1,.59-2,14.84,14.84,0,0,1,2.019-3.74,12.47,12.47,0,0,1,3.854-3.45,10.512,10.512,0,0,1,5.251-1.43h.3a12.624,12.624,0,0,1,4.082.7,12.2,12.2,0,0,1,6.336,4.874,12.593,12.593,0,0,1,1.615,3.521,12.079,12.079,0,0,1,.3,5.34,10.682,10.682,0,0,1-3.8,6.621,13.192,13.192,0,0,1-4.2,2.348,16.627,16.627,0,0,1-4.913.9C422.688,415.85,422.595,415.852,422.5,415.852ZM423.065,392a10.054,10.054,0,0,0-5.019,1.369,12,12,0,0,0-3.708,3.323,14.359,14.359,0,0,0-1.957,3.623,15.265,15.265,0,0,0-.574,1.946c-.1.443-.153.908-.207,1.356-.024.191-.047.382-.073.574a11.186,11.186,0,0,0,.314,3.981,8.443,8.443,0,0,0,1.022,2.453,9.046,9.046,0,0,0,3.927,3.576,9.369,9.369,0,0,0,2.967.933l.5.063a14.483,14.483,0,0,0,7.28-.694,12.762,12.762,0,0,0,4.054-2.263,10.23,10.23,0,0,0,3.642-6.342,11.636,11.636,0,0,0-.289-5.136,12.049,12.049,0,0,0-1.554-3.389,11.737,11.737,0,0,0-6.1-4.694,12.153,12.153,0,0,0-3.93-.675Zm.552,13.617h0a2.676,2.676,0,0,1-1.934-.822,2.305,2.305,0,0,1-.655-1.71,2.349,2.349,0,0,1,.653-1.721,2.709,2.709,0,0,1,1.929-.834,2.638,2.638,0,0,1,2.609,2.54,2.469,2.469,0,0,1-.732,1.749A2.607,2.607,0,0,1,423.617,405.62Zm0-.465h0a2.141,2.141,0,0,0,1.508-.63,2,2,0,0,0,.624-1.441A2.156,2.156,0,0,0,423.641,401a2.261,2.261,0,0,0-1.6.66,1.92,1.92,0,0,0-.55,1.436,1.859,1.859,0,0,0,.552,1.409A2.211,2.211,0,0,0,423.616,405.155Z" transform="translate(-410.988 -391.539)" fill="#010037"/>
          </g>
        </g>
        <g id="Group_311" data-name="Group 311" transform="translate(78.31 2.785)">
          <g id="Group_309" data-name="Group 309" transform="translate(0.122 0.117)">
            <path id="Path_581" data-name="Path 581" d="M504.87,415.961c-1.017-.128-2.044-.208-3.049-.4a10.151,10.151,0,0,1-3.022-1.12,8.927,8.927,0,0,1-2.239-1.708,9.577,9.577,0,0,1-1.831-2.783,11.359,11.359,0,0,1-.854-4.687,13.1,13.1,0,0,1,.447-3.14,15.449,15.449,0,0,1,1.127-3.03,13.435,13.435,0,0,1,3.448-4.411,10.692,10.692,0,0,1,8.7-2.4,12.7,12.7,0,0,1,3.711,1.127,12.222,12.222,0,0,1,6.11,6.8,11.733,11.733,0,0,1,.663,5.12,11.432,11.432,0,0,1-.646,2.985,10.16,10.16,0,0,1-2.229,3.518,12.074,12.074,0,0,1-3.625,2.6,11.78,11.78,0,0,1-2.952.986c-1.038.179-2.081.33-3.124.482a4.464,4.464,0,0,1-.627,0Zm3.742-10.637a2.439,2.439,0,0,0-2.447-2.381,2.37,2.37,0,1,0,.012,4.739A2.433,2.433,0,0,0,508.611,405.324Z" transform="translate(-493.699 -391.977)" fill="#fff"/>
            <path id="Path_582" data-name="Path 582" d="M504.792,416.077c-.312-.039-.626-.074-.94-.109-.7-.078-1.418-.158-2.121-.29a10.424,10.424,0,0,1-3.074-1.139,9.065,9.065,0,0,1-2.281-1.743,9.812,9.812,0,0,1-1.865-2.832,11.451,11.451,0,0,1-.868-4.757,13.274,13.274,0,0,1,.452-3.181,15.428,15.428,0,0,1,1.142-3.064,13.5,13.5,0,0,1,3.491-4.468,10.877,10.877,0,0,1,8.836-2.435,12.936,12.936,0,0,1,3.762,1.144,12.39,12.39,0,0,1,6.2,6.894,11.979,11.979,0,0,1,.672,5.2,11.548,11.548,0,0,1-.657,3.029,10.359,10.359,0,0,1-2.266,3.578,12.264,12.264,0,0,1-3.677,2.633,11.859,11.859,0,0,1-2.994,1c-1.049.179-2.107.334-3.131.483a2.525,2.525,0,0,1-.458.011.4.4,0,0,0-.042,0l0,.017Zm-.151-.2.173.023Zm1.1-23.613a10.381,10.381,0,0,0-3.035.44,10.851,10.851,0,0,0-3.757,2.053,13.16,13.16,0,0,0-3.4,4.354,15.2,15.2,0,0,0-1.115,3,12.914,12.914,0,0,0-.441,3.1,11.1,11.1,0,0,0,.841,4.616,9.458,9.458,0,0,0,1.8,2.732,8.761,8.761,0,0,0,2.2,1.675,10.04,10.04,0,0,0,2.971,1.1c.689.13,1.4.21,2.1.288.256.029.513.057.769.088V415.7l.161-.03c.068,0,.136,0,.206.006a2.126,2.126,0,0,0,.394-.008c1.023-.148,2.078-.3,3.122-.48a11.573,11.573,0,0,0,2.908-.973,11.919,11.919,0,0,0,3.574-2.561,10.014,10.014,0,0,0,2.19-3.458,11.247,11.247,0,0,0,.638-2.939,11.65,11.65,0,0,0-.654-5.047,12.069,12.069,0,0,0-6.024-6.7,12.6,12.6,0,0,0-3.662-1.112A12.083,12.083,0,0,0,505.743,392.268Zm.4,15.53h-.027a2.543,2.543,0,1,1-.015-5.086,2.636,2.636,0,0,1,1.84.745,2.567,2.567,0,0,1,.786,1.809,2.51,2.51,0,0,1-.761,1.766A2.618,2.618,0,0,1,506.145,407.8Zm.012-4.738h-.046a2.2,2.2,0,1,0,.01,4.391h.024a2.269,2.269,0,0,0,1.579-.664,2.161,2.161,0,0,0,.657-1.52h0a2.207,2.207,0,0,0-.681-1.561A2.23,2.23,0,0,0,506.157,403.06Z" transform="translate(-493.642 -391.921)" fill="#010037"/>
          </g>
          <g id="Group_310" data-name="Group 310">
            <path id="Path_583" data-name="Path 583" d="M505.752,392.112a12.269,12.269,0,0,1,1.8.136,12.7,12.7,0,0,1,3.711,1.127,12.221,12.221,0,0,1,6.109,6.8,11.732,11.732,0,0,1,.663,5.12,11.43,11.43,0,0,1-.646,2.985,10.159,10.159,0,0,1-2.228,3.518,12.059,12.059,0,0,1-3.625,2.6,11.749,11.749,0,0,1-2.952.987c-1.038.179-2.081.33-3.124.482a1.666,1.666,0,0,1-.23.014c-.132,0-.265-.01-.4-.01l-.008.057c-1.017-.128-2.045-.208-3.049-.4a10.148,10.148,0,0,1-3.023-1.12,8.911,8.911,0,0,1-2.238-1.708,9.565,9.565,0,0,1-1.832-2.783,11.358,11.358,0,0,1-.854-4.687,13.1,13.1,0,0,1,.447-3.14,15.4,15.4,0,0,1,1.128-3.03,13.424,13.424,0,0,1,3.448-4.411,10.983,10.983,0,0,1,3.818-2.084,10.513,10.513,0,0,1,3.077-.449m.41,15.532a2.37,2.37,0,1,0,.013-4.74h-.05a2.37,2.37,0,1,0,.012,4.739h.026m-.41-15.649a10.677,10.677,0,0,0-3.114.455,11.139,11.139,0,0,0-3.861,2.107,13.442,13.442,0,0,0-3.478,4.449,15.419,15.419,0,0,0-1.136,3.052,13.259,13.259,0,0,0-.451,3.167,11.4,11.4,0,0,0,.863,4.734,9.768,9.768,0,0,0,1.854,2.817,8.974,8.974,0,0,0,2.269,1.731,10.3,10.3,0,0,0,3.059,1.134c.7.133,1.425.213,2.124.291.311.035.622.069.932.109l.122.015.008-.07.087,0c.068,0,.136.005.2.005a1.709,1.709,0,0,0,.247-.016c1.021-.148,2.076-.3,3.128-.482a11.792,11.792,0,0,0,2.983-1,12.243,12.243,0,0,0,3.662-2.623,10.3,10.3,0,0,0,2.253-3.558,11.54,11.54,0,0,0,.653-3.015,11.906,11.906,0,0,0-.669-5.17,12.343,12.343,0,0,0-6.17-6.863,12.936,12.936,0,0,0-3.748-1.139,12.632,12.632,0,0,0-1.823-.137Zm.41,15.532h-.024a2.252,2.252,0,1,1-.011-4.5h.047a2.33,2.33,0,0,1,2.275,2.264,2.22,2.22,0,0,1-.683,1.57,2.318,2.318,0,0,1-1.605.671Z" transform="translate(-493.537 -391.822)" fill="#010037"/>
            <path id="Path_584" data-name="Path 584" d="M505.031,416.193l-.3-.037c-.309-.039-.62-.075-.929-.109l-.046-.005c-.688-.077-1.4-.156-2.093-.287a10.525,10.525,0,0,1-3.111-1.153,9.171,9.171,0,0,1-2.312-1.766,9.989,9.989,0,0,1-1.886-2.864,11.623,11.623,0,0,1-.878-4.806,13.532,13.532,0,0,1,.457-3.208,15.583,15.583,0,0,1,1.149-3.086,13.618,13.618,0,0,1,3.523-4.505,11.006,11.006,0,0,1,8.934-2.462,13.074,13.074,0,0,1,3.8,1.153,12.513,12.513,0,0,1,6.257,6.961,12.081,12.081,0,0,1,.679,5.245,11.672,11.672,0,0,1-.663,3.059,10.465,10.465,0,0,1-2.29,3.617,12.387,12.387,0,0,1-3.714,2.659,11.9,11.9,0,0,1-3.027,1.01c-1.014.173-2.031.323-3.016.467l-.115.017a2.743,2.743,0,0,1-.409.014Zm.665-23.964a10.365,10.365,0,0,0-3.028.441,10.849,10.849,0,0,0-3.757,2.053,13.16,13.16,0,0,0-3.4,4.354,15.194,15.194,0,0,0-1.115,3,12.913,12.913,0,0,0-.441,3.1,11.1,11.1,0,0,0,.841,4.616,9.457,9.457,0,0,0,1.8,2.732,8.762,8.762,0,0,0,2.2,1.675,10.04,10.04,0,0,0,2.971,1.1c.689.13,1.4.21,2.1.288.27.029.541.06.811.093l.118-.044c.068,0,.136,0,.2.006a2.5,2.5,0,0,0,.4-.008c1.024-.149,2.083-.3,3.117-.48a11.563,11.563,0,0,0,2.909-.973,11.92,11.92,0,0,0,3.574-2.561,9.969,9.969,0,0,0,2.19-3.458,11.248,11.248,0,0,0,.638-2.939,11.649,11.649,0,0,0-.654-5.047,12.068,12.068,0,0,0-6.024-6.7,12.6,12.6,0,0,0-3.662-1.112A12.32,12.32,0,0,0,505.7,392.229Zm.409,15.532h-.026a2.543,2.543,0,1,1-.017-5.086h.056a2.6,2.6,0,0,1,2.57,2.555,2.477,2.477,0,0,1-.75,1.756A2.615,2.615,0,0,1,506.105,407.76Zm-.035-4.621a2.079,2.079,0,1,0,.012,4.156l.023.175V407.3a2.147,2.147,0,0,0,1.484-.621,2.044,2.044,0,0,0,.63-1.447,2.15,2.15,0,0,0-2.1-2.09Z" transform="translate(-493.48 -391.766)" fill="#010037"/>
          </g>
        </g>
        <g id="Group_314" data-name="Group 314" transform="translate(94.998 0.642)">
          <g id="Group_312" data-name="Group 312" transform="translate(0.204 0.121)">
            <path id="Path_585" data-name="Path 585" d="M516.237,391.765c.852,1.071,1.649,2.077,2.45,3.081q1.622,2.032,3.245,4.062c1.173,1.472,2.339,2.948,3.518,4.416a.548.548,0,0,1,.081.682q-1.94,3.664-3.865,7.336-.935,1.773-1.882,3.54c-.25.47-.2.525.33.562.948.066,1.893.163,2.84.243.841.072,1.684.136,2.526.207.573.047,1.148.078,1.717.158a.766.766,0,0,0,.855-.354c1.012-1.49,2.056-2.96,3.084-4.439a3,3,0,0,0,.19-.366l.149.027c.275.331.556.657.824.994.892,1.123,1.772,2.256,2.679,3.367a.715.715,0,0,0,.54.216c2.733-.32,5.463-.661,8.193-1,.314-.039.366-.157.2-.4q-2.342-3.471-4.682-6.941c-.8-1.186-1.591-2.376-2.391-3.562a.434.434,0,0,1,.032-.558q2.219-3.177,4.421-6.362c.8-1.15,1.591-2.3,2.4-3.45.175-.248.153-.371-.159-.452-.847-.221-1.691-.457-2.537-.685l-3.079-.832q-1.488-.4-2.978-.8c-.485-.131-.973-.252-1.453-.4-.448-.135-.544-.106-.752.289q-.927,1.757-1.861,3.513c-.188.353-.326.348-.547.02-.963-1.435-1.937-2.862-2.892-4.3a.488.488,0,0,0-.612-.232c-1.04.244-2.085.462-3.126.7-1.567.355-3.133.718-4.7,1.077-.778.179-1.557.353-2.334.531C516.535,391.673,516.417,391.713,516.237,391.765Z" transform="translate(-515.94 -389.14)" fill="#fff"/>
            <path id="Path_586" data-name="Path 586" d="M527.3,416.183a1.743,1.743,0,0,1-.227-.016c-.416-.059-.847-.091-1.265-.122l-1.564-.127q-.7-.056-1.405-.115c-.333-.028-.668-.06-1-.089-.611-.056-1.222-.112-1.835-.154-.3-.021-.511-.047-.6-.211s0-.353.13-.6q.944-1.77,1.882-3.542l1.287-2.445q1.286-2.447,2.578-4.89a.382.382,0,0,0-.063-.492q-1.131-1.409-2.254-2.827l-4.509-5.651c-.6-.754-1.2-1.51-1.825-2.294l-.786-.99.419-.122c.1-.029.176-.052.257-.072l3.861-.881q1.587-.364,3.175-.727.665-.15,1.333-.3c.6-.131,1.2-.262,1.791-.4a.67.67,0,0,1,.8.306c.6.916,1.219,1.824,1.833,2.734q.528.783,1.056,1.567a.569.569,0,0,0,.142.166c0-.01.042-.049.107-.171q.854-1.6,1.7-3.21l.161-.3c.26-.489.458-.522.956-.374.333.1.669.19,1.006.278l7.265,1.962c.589.16,1.178.321,1.769.474a.5.5,0,0,1,.38.266.511.511,0,0,1-.122.454c-.582.826-1.156,1.657-1.73,2.487l-1.644,2.372q-1.719,2.48-3.443,4.952c-.119.171-.106.25-.031.361q.645.956,1.284,1.912.552.827,1.107,1.652l4.682,6.94a.468.468,0,0,1,.1.448.491.491,0,0,1-.416.226l-.948.118c-2.415.3-4.831.6-7.247.883a.873.873,0,0,1-.694-.278c-.624-.764-1.234-1.538-1.846-2.312q-.417-.529-.835-1.056c-.188-.237-.384-.47-.579-.7l-.173-.206a1.707,1.707,0,0,1-.131.243q-.494.709-.99,1.416c-.7,1-1.407,2.009-2.1,3.022A.889.889,0,0,1,527.3,416.183Zm-7.551-.988c.05,0,.145.011.278.019.614.044,1.228.1,1.841.155.334.03.667.061,1,.088.468.041.936.078,1.4.117l1.564.126c.421.031.858.065,1.287.124a.593.593,0,0,0,.686-.28c.691-1.014,1.394-2.02,2.1-3.027q.494-.706.987-1.413a1.6,1.6,0,0,0,.114-.213c.02-.046.042-.091.066-.134l.06-.115.336.064.28.335c.2.235.4.47.584.709q.419.529.837,1.058c.611.773,1.219,1.546,1.842,2.308a.538.538,0,0,0,.385.153c2.416-.283,4.83-.584,7.246-.883l.946-.118a.476.476,0,0,0,.14-.032c-.01-.009-.025-.044-.064-.1l-4.682-6.942q-.555-.826-1.108-1.652-.64-.956-1.282-1.91a.609.609,0,0,1,.034-.754q1.727-2.472,3.441-4.952l1.645-2.372q.861-1.247,1.73-2.49a.487.487,0,0,0,.078-.138h0c-.01,0-.047-.022-.137-.045-.593-.153-1.183-.314-1.774-.477l-7.263-1.959c-.341-.09-.681-.179-1.017-.281-.38-.118-.384-.109-.55.2l-.16.3c-.565,1.07-1.131,2.143-1.7,3.21-.087.161-.21.347-.4.357H530.5c-.184,0-.318-.161-.426-.321q-.526-.784-1.056-1.567c-.614-.91-1.23-1.82-1.836-2.735a.319.319,0,0,0-.429-.16c-.6.139-1.2.271-1.795.4-.444.1-.889.2-1.332.3q-1.587.36-3.172.727l-3.861.881c-.053.012-.1.027-.163.044l.467.586c.622.784,1.223,1.539,1.824,2.293l4.509,5.652q1.125,1.416,2.254,2.826a.719.719,0,0,1,.1.872q-1.294,2.441-2.578,4.889l-1.287,2.446q-.936,1.773-1.882,3.542a.932.932,0,0,0-.126.293C519.716,415.2,519.729,415.2,519.751,415.2Z" transform="translate(-515.843 -389.085)" fill="#010037"/>
          </g>
          <g id="Group_313" data-name="Group 313">
            <path id="Path_587" data-name="Path 587" d="M526.947,389.274a.471.471,0,0,1,.415.259c.954,1.44,1.929,2.867,2.892,4.3.109.162.2.245.282.245s.169-.087.265-.265q.936-1.754,1.861-3.513c.137-.26.226-.362.4-.362a1.322,1.322,0,0,1,.353.073c.48.145.969.265,1.454.4q1.489.4,2.978.8l3.079.832c.846.228,1.689.464,2.537.685.312.081.334.2.159.452-.806,1.145-1.6,2.3-2.4,3.45q-2.207,3.182-4.421,6.362a.434.434,0,0,0-.032.558c.8,1.186,1.591,2.376,2.391,3.562q2.339,3.472,4.682,6.941c.167.247.115.365-.2.4-2.73.34-5.46.681-8.193,1l-.046,0a.726.726,0,0,1-.495-.218c-.907-1.111-1.787-2.244-2.679-3.367-.268-.337-.549-.663-.824-.994l-.149-.027a2.991,2.991,0,0,1-.19.366c-1.028,1.479-2.072,2.949-3.084,4.439a.724.724,0,0,1-.652.369,1.516,1.516,0,0,1-.2-.015c-.568-.079-1.144-.11-1.717-.158-.842-.07-1.685-.135-2.526-.207-.947-.08-1.892-.177-2.84-.243-.535-.037-.581-.092-.33-.562q.943-1.769,1.882-3.54,1.934-3.668,3.865-7.336a.548.548,0,0,0-.081-.682c-1.178-1.467-2.345-2.944-3.518-4.416q-1.621-2.032-3.245-4.062c-.8-1-1.6-2.01-2.45-3.081.18-.052.3-.092.418-.119.777-.179,1.556-.353,2.334-.531,1.567-.359,3.132-.722,4.7-1.077,1.041-.237,2.087-.455,3.126-.7a.868.868,0,0,1,.2-.026m0-.118a1.012,1.012,0,0,0-.226.029c-.612.144-1.227.279-1.841.414q-.642.14-1.285.285-1.485.337-2.968.68l-1.732.4-1.12.254-1.214.277c-.082.019-.162.043-.26.072l-.165.049-.169.049.108.135.768.966c.572.72,1.127,1.418,1.683,2.115q.746.936,1.495,1.871.875,1.1,1.75,2.192l1.214,1.526q1.149,1.446,2.3,2.89a.435.435,0,0,1,.068.556q-1.214,2.3-2.421,4.595-.722,1.372-1.443,2.742-.8,1.521-1.614,3.038l-.268.5c-.126.236-.209.414-.128.552s.272.161.558.18c.615.043,1.241.1,1.846.155.33.03.661.06.992.088.461.039.921.076,1.382.114l1.144.093c.151.013.3.024.452.035.414.032.842.063,1.257.121a1.659,1.659,0,0,0,.22.017.846.846,0,0,0,.753-.422c.682-1,1.39-2.014,2.075-2.993q.5-.721,1.009-1.444a1.786,1.786,0,0,0,.143-.265l.016-.034.014,0,.23.275c.19.226.38.452.563.683q.419.528.837,1.058c.6.761,1.22,1.547,1.843,2.311a.843.843,0,0,0,.589.262.526.526,0,0,0,.06,0c2.622-.307,5.286-.639,7.862-.96l.332-.041c.129-.017.308-.054.374-.191a.415.415,0,0,0-.09-.394l-1.647-2.441q-1.518-2.25-3.035-4.5-.58-.862-1.156-1.725-.616-.919-1.233-1.837c-.1-.146-.09-.254.031-.428q1.826-2.615,3.64-5.237l.781-1.126.7-1.01q.845-1.221,1.7-2.438a.45.45,0,0,0,.114-.4.459.459,0,0,0-.341-.228c-.584-.152-1.166-.311-1.749-.47l-.786-.215-3.08-.832-1.659-.446L534.9,390.3c-.14-.038-.281-.075-.422-.112-.339-.089-.688-.182-1.028-.283a1.425,1.425,0,0,0-.389-.078c-.262,0-.38.184-.507.425l-.2.384q-.826,1.565-1.657,3.128c-.1.2-.156.2-.157.2s-.053,0-.18-.191q-.531-.793-1.067-1.583c-.611-.9-1.222-1.809-1.824-2.718a.589.589,0,0,0-.517-.313Z" transform="translate(-515.67 -388.981)" fill="#010037"/>
            <path id="Path_588" data-name="Path 588" d="M527.236,416.262a1.77,1.77,0,0,1-.243-.018c-.414-.058-.838-.09-1.248-.121-.152-.011-.3-.023-.453-.035l-1.144-.094q-.692-.054-1.383-.112c-.331-.029-.662-.06-.993-.09-.6-.054-1.228-.111-1.842-.153-.277-.02-.563-.041-.7-.266s0-.493.126-.721l.422-.79q.732-1.375,1.459-2.75l1.443-2.742q1.209-2.3,2.422-4.595c.073-.136.075-.21-.05-.366q-1.042-1.3-2.075-2.6l-7.407-9.3.581-.17c.1-.029.185-.054.271-.075l1.215-.277q.562-.126,1.119-.255l1.733-.4q1.484-.341,2.969-.681l1.284-.285c.614-.134,1.227-.269,1.84-.413a.777.777,0,0,1,.928.357c.518.784,1.043,1.561,1.567,2.339l.255.377q.535.792,1.067,1.585l.024.034.017-.032q.762-1.424,1.515-2.854l.345-.655a.762.762,0,0,1,.662-.519,1.6,1.6,0,0,1,.439.087c.323.1.657.185.979.27L541.976,392c.487.133.974.265,1.462.392a.623.623,0,0,1,.46.333.616.616,0,0,1-.133.565c-.57.809-1.134,1.625-1.7,2.438l-1.481,2.137q-1.816,2.62-3.64,5.236c-.093.136-.074.164-.028.233q.616.917,1.233,1.838l5.839,8.664a.59.59,0,0,1,.1.565.619.619,0,0,1-.511.289l-.331.042c-2.575.321-5.241.652-7.862.96-.035,0-.057,0-.081,0a1.023,1.023,0,0,1-.724-.326c-.623-.764-1.245-1.552-1.846-2.314q-.415-.528-.835-1.056c-.167-.211-.341-.418-.513-.623l-.117-.139c-.019.032-.038.062-.058.092q-.5.724-1.009,1.444l-.03.041c-.675.966-1.372,1.962-2.044,2.951A1.021,1.021,0,0,1,527.236,416.262Zm-7.551-1.107c.05,0,.145.011.278.019.614.044,1.228.1,1.841.155.334.03.667.061,1,.088.468.041.936.078,1.4.117l1.564.126c.421.031.858.065,1.287.124a.59.59,0,0,0,.686-.28c.675-.993,1.365-1.978,2.054-2.963.343-.492.688-.983,1.031-1.477a1.521,1.521,0,0,0,.121-.227c.02-.04.038-.08.059-.119l.06-.117.338.064.28.335c.2.235.4.47.584.709q.422.532.84,1.062c.609.771,1.216,1.542,1.839,2.3a.563.563,0,0,0,.36.153c2.442-.283,4.856-.584,7.271-.883l.946-.118a.429.429,0,0,0,.14-.032c-.01-.009-.025-.044-.064-.1l-4.682-6.942q-.555-.826-1.108-1.652-.64-.956-1.282-1.91a.609.609,0,0,1,.034-.754q1.727-2.472,3.441-4.952l1.645-2.372q.861-1.247,1.73-2.49a.487.487,0,0,0,.078-.138h0c-.01,0-.047-.022-.137-.045-.593-.153-1.183-.314-1.774-.477l-7.263-1.959c-.341-.09-.681-.179-1.017-.281a1.273,1.273,0,0,0-.3-.065c-.059,0-.106,0-.247.268l-.16.3c-.565,1.07-1.131,2.143-1.7,3.21-.088.167-.216.358-.418.358-.184,0-.318-.163-.426-.323q-.526-.784-1.056-1.567c-.614-.91-1.23-1.82-1.836-2.735-.146-.219-.22-.21-.431-.16-.595.139-1.194.271-1.793.4-.444.1-.889.2-1.332.3q-1.587.36-3.172.727l-3.861.881c-.053.012-.1.027-.163.044l.467.586c.622.784,1.223,1.539,1.824,2.293l4.509,5.652q1.125,1.416,2.254,2.826a.719.719,0,0,1,.1.872q-1.294,2.441-2.578,4.889l-1.287,2.446q-.936,1.773-1.882,3.542a.932.932,0,0,0-.126.293C519.649,415.157,519.663,415.155,519.685,415.155Z" transform="translate(-515.573 -388.924)" fill="#010037"/>
          </g>
        </g>
        <g id="Group_317" data-name="Group 317">
          <g id="Group_315" data-name="Group 315" transform="translate(0.131 0.128)">
            <path id="Path_589" data-name="Path 589" d="M408.929,399.015c.249,1.185.553,2.363.731,3.558a13.767,13.767,0,0,1,.026,3.92,10.019,10.019,0,0,1-2.189,5.148,10.985,10.985,0,0,1-2.654,2.305,10.756,10.756,0,0,1-4.48,1.482,9.434,9.434,0,0,1-7.39-2.2,7.382,7.382,0,0,1-1.77-2.059c-.3-.532-.611-1.066-.865-1.622-.234-.51-.194-.562.23-.932q2.451-2.132,4.9-4.265.4-.352.787-.725c.174-.17.335-.121.52-.024.544.286,1.093.565,1.643.841a1.368,1.368,0,0,0,.273.086c.448.12.708-.017.715-.471a5.18,5.18,0,0,0-.137-1.653,24.6,24.6,0,0,0-1.172-2.916c-.495-1.052-1.05-2.079-1.624-3.093-.44-.777-.95-1.517-1.425-2.275-.4-.645-.806-1.29-1.192-1.944-.035-.059.032-.211.1-.277a.787.787,0,0,1,.292-.121q3.671-1.283,7.341-2.567.951-.334,1.895-.688a.36.36,0,0,1,.505.175c.19.335.381.669.571,1,.409.724.825,1.445,1.223,2.175.354.649.721,1.294,1.026,1.965a31.3,31.3,0,0,1,2.042,5.187Z" transform="translate(-390.009 -388.302)" fill="#fff"/>
            <path id="Path_590" data-name="Path 590" d="M399.05,415.634a9.732,9.732,0,0,1-6.257-2.319,7.539,7.539,0,0,1-1.814-2.109c-.3-.527-.613-1.071-.872-1.637-.274-.6-.2-.73.278-1.15l.924-.8q1.989-1.73,3.975-3.46c.267-.233.525-.472.779-.719a.578.578,0,0,1,.738-.053q.814.425,1.639.84a1.033,1.033,0,0,0,.179.057l.058.014a.491.491,0,0,0,.387-.005.387.387,0,0,0,.093-.289v-.071a4.746,4.746,0,0,0-.13-1.521,24.51,24.51,0,0,0-1.163-2.9c-.427-.9-.924-1.855-1.618-3.08-.288-.508-.614-1.012-.928-1.5-.167-.255-.332-.511-.494-.769-.4-.646-.807-1.293-1.192-1.949-.1-.167.032-.411.124-.5a.649.649,0,0,1,.291-.143l.072-.022,7.341-2.568c.632-.221,1.262-.448,1.888-.687a.547.547,0,0,1,.734.258l.907,1.6c.3.527.6,1.055.89,1.586l.172.314c.3.537.6,1.095.859,1.662l.225.488a29.4,29.4,0,0,1,1.784,4.556l.075-.017.053.182c.075.358.155.717.237,1.076.182.813.371,1.654.5,2.492a13.993,13.993,0,0,1,.026,3.974,10.174,10.174,0,0,1-2.23,5.242,11.247,11.247,0,0,1-2.7,2.343,10.831,10.831,0,0,1-4.555,1.51A10.341,10.341,0,0,1,399.05,415.634Zm-2.611-11.991a.156.156,0,0,0-.115.06c-.255.249-.522.5-.793.733q-1.986,1.731-3.976,3.46l-.924.805c-.365.317-.365.317-.185.713.253.55.56,1.088.857,1.606a7.232,7.232,0,0,0,1.726,2.008,9.188,9.188,0,0,0,7.251,2.157,10.482,10.482,0,0,0,4.4-1.454,10.808,10.808,0,0,0,2.608-2.268,9.771,9.771,0,0,0,2.149-5.056,13.564,13.564,0,0,0-.026-3.866c-.123-.826-.311-1.66-.491-2.466-.067-.3-.134-.594-.2-.893l-.072.02-.047-.182a28.123,28.123,0,0,0-1.808-4.67l-.223-.488c-.255-.556-.556-1.106-.848-1.637l-.17-.314c-.29-.528-.588-1.054-.888-1.579l-.905-1.6c-.067-.114-.121-.152-.278-.092-.627.239-1.264.466-1.9.69l-7.341,2.568-.093.029a.482.482,0,0,0-.128.048.266.266,0,0,0-.048.084c.38.642.773,1.273,1.169,1.905.16.256.324.511.489.764.317.491.646,1,.939,1.517.7,1.235,1.2,2.192,1.632,3.105a25.145,25.145,0,0,1,1.181,2.94,5.054,5.054,0,0,1,.147,1.642V404a.7.7,0,0,1-.242.58.8.8,0,0,1-.707.069l-.054-.014a1.141,1.141,0,0,1-.255-.086c-.55-.277-1.1-.556-1.645-.843A.461.461,0,0,0,396.438,403.643Zm-2.483-11.619h0Z" transform="translate(-389.948 -388.241)" fill="#010037"/>
          </g>
          <g id="Group_316" data-name="Group 316">
            <path id="Path_591" data-name="Path 591" d="M403.63,388.446a.353.353,0,0,1,.314.215c.19.335.381.669.571,1,.409.724.825,1.445,1.224,2.175.354.649.72,1.294,1.025,1.965a31.3,31.3,0,0,1,2.042,5.187l.082-.018c.249,1.185.553,2.363.731,3.558a13.739,13.739,0,0,1,.026,3.92,10.019,10.019,0,0,1-2.189,5.148,10.986,10.986,0,0,1-2.654,2.305,10.756,10.756,0,0,1-4.48,1.482,10.233,10.233,0,0,1-1.273.081,9.49,9.49,0,0,1-6.118-2.277,7.382,7.382,0,0,1-1.77-2.059c-.3-.532-.611-1.066-.865-1.622-.234-.51-.194-.562.231-.932q2.449-2.132,4.9-4.265.4-.352.787-.725a.342.342,0,0,1,.244-.112.617.617,0,0,1,.276.088c.544.286,1.093.565,1.643.841a1.368,1.368,0,0,0,.273.086,1.051,1.051,0,0,0,.276.041c.277,0,.433-.161.44-.513a5.181,5.181,0,0,0-.137-1.653,24.61,24.61,0,0,0-1.172-2.916c-.495-1.052-1.05-2.079-1.624-3.093-.44-.777-.95-1.517-1.425-2.275-.4-.645-.806-1.29-1.192-1.944-.035-.059.032-.211.1-.277a.786.786,0,0,1,.292-.121q3.671-1.283,7.341-2.567.951-.334,1.894-.688a.538.538,0,0,1,.192-.04m0-.127a.679.679,0,0,0-.239.049c-.575.218-1.194.443-1.891.687l-4.82,1.686-2.522.881-.076.023a.58.58,0,0,0-.265.129c-.078.078-.2.291-.117.427.375.636.762,1.258,1.193,1.947.16.255.323.508.487.761.317.489.645,1,.935,1.508.694,1.227,1.193,2.179,1.62,3.085a24.459,24.459,0,0,1,1.166,2.9,4.816,4.816,0,0,1,.133,1.537v.075c-.006.343-.16.389-.31.389a.966.966,0,0,1-.241-.037l-.058-.015a.955.955,0,0,1-.19-.061q-.823-.415-1.64-.841a.743.743,0,0,0-.338-.1.475.475,0,0,0-.337.15c-.246.24-.508.482-.782.72q-1.646,1.436-3.3,2.87l-1.6,1.395c-.465.4-.521.511-.262,1.077s.565,1.1.865,1.624a7.513,7.513,0,0,0,1.8,2.1,9.671,9.671,0,0,0,6.2,2.308,10.438,10.438,0,0,0,1.289-.082,10.759,10.759,0,0,0,4.534-1.5,11.163,11.163,0,0,0,2.685-2.332,10.086,10.086,0,0,0,2.216-5.211,13.91,13.91,0,0,0-.026-3.955c-.124-.834-.311-1.671-.493-2.48-.081-.361-.163-.722-.238-1.084l-.027-.127-.087.02a29.012,29.012,0,0,0-1.8-4.6l-.222-.485c-.26-.57-.567-1.129-.864-1.67l-.166-.3c-.288-.527-.584-1.05-.881-1.573l-.343-.6-.321-.566-.25-.439a.48.48,0,0,0-.427-.281Z" transform="translate(-389.836 -388.133)" fill="#010037"/>
            <path id="Path_592" data-name="Path 592" d="M398.987,415.72a9.851,9.851,0,0,1-6.32-2.35,7.685,7.685,0,0,1-1.849-2.152c-.3-.531-.616-1.076-.871-1.641-.3-.66-.207-.845.308-1.294l2.4-2.086q1.252-1.088,2.5-2.178c.27-.237.53-.476.775-.715a.761.761,0,0,1,.889-.077q.818.425,1.64.84a.939.939,0,0,0,.151.047l.059.014a.774.774,0,0,0,.194.032c.076,0,.121,0,.124-.207v-.075a4.663,4.663,0,0,0-.125-1.478,23.478,23.478,0,0,0-1.157-2.878c-.426-.905-.923-1.853-1.611-3.073-.3-.522-.633-1.041-.93-1.5l-.078-.122c-.139-.214-.277-.428-.411-.645-.419-.669-.815-1.3-1.195-1.949a.6.6,0,0,1,.144-.654.761.761,0,0,1,.344-.175l.067-.022,2.522-.881q2.411-.844,4.82-1.687c.7-.242,1.313-.467,1.888-.686a.858.858,0,0,1,.3-.06.66.66,0,0,1,.59.375l.913,1.609c.3.522.595,1.046.884,1.575l.166.3c.305.558.611,1.113.869,1.683l.221.485a30.253,30.253,0,0,1,1.762,4.461l.1-.022.064.311c.075.361.157.72.238,1.081.182.81.37,1.648.5,2.494a14.265,14.265,0,0,1,.026,4.009,10.276,10.276,0,0,1-2.258,5.3,11.375,11.375,0,0,1-2.73,2.369,10.947,10.947,0,0,1-4.61,1.53A10.7,10.7,0,0,1,398.987,415.72ZM396.4,403.6a.162.162,0,0,0-.115.06c-.255.249-.522.5-.793.733q-1.986,1.731-3.976,3.46l-.924.805c-.365.317-.365.317-.185.713.253.55.56,1.088.857,1.606a7.17,7.17,0,0,0,1.728,2.008,9.24,9.24,0,0,0,6,2.236,10.066,10.066,0,0,0,1.25-.079,10.482,10.482,0,0,0,4.4-1.454,10.808,10.808,0,0,0,2.608-2.268,9.771,9.771,0,0,0,2.149-5.056,13.564,13.564,0,0,0-.026-3.866c-.121-.826-.309-1.659-.489-2.465-.069-.3-.136-.595-.2-.893l-.072.02-.047-.182a28.123,28.123,0,0,0-1.808-4.67l-.223-.488c-.255-.556-.556-1.106-.848-1.637l-.17-.314c-.29-.528-.588-1.054-.888-1.579l-.905-1.6c-.069-.119-.121-.119-.152-.119a.419.419,0,0,0-.128.027c-.627.239-1.26.466-1.9.69l-7.341,2.568-.093.029a.482.482,0,0,0-.128.048.266.266,0,0,0-.048.084c.38.642.773,1.273,1.169,1.905.16.256.324.511.489.764.317.491.646,1,.939,1.517.7,1.235,1.2,2.192,1.632,3.105a25.145,25.145,0,0,1,1.181,2.94,5.054,5.054,0,0,1,.147,1.642v.07c-.009.555-.375.8-.951.649l-.053-.014a1.141,1.141,0,0,1-.255-.086c-.55-.277-1.1-.556-1.645-.843A.478.478,0,0,0,396.4,403.6Zm-2.483-11.619h0Z" transform="translate(-389.775 -388.072)" fill="#010037"/>
          </g>
        </g>
      </g>
      <g id="Group_319" data-name="Group 319" transform="translate(3.103)">
        <path id="Path_593" data-name="Path 593" d="M438.6,344.155a.47.47,0,0,0-.555-.366,33.617,33.617,0,0,0-11.629,4.751.468.468,0,0,0-.213.394v3.032a.468.468,0,0,0,.188.375,23.112,23.112,0,0,1,3.658,3.513c1.564,1.839,1.733,2.532,1.733,2.746a.506.506,0,0,1-.019.156,3.3,3.3,0,0,1-.736.162,19.251,19.251,0,0,1-2.528.119H427.36q-.4,0-.682-.012a3.166,3.166,0,0,1-.492-.059l-.461-.094a.41.41,0,0,1-.167-.088c-.112-.088-.2-.162-.264-.218a.868.868,0,0,1-.121-.2,3.8,3.8,0,0,1-.167-.382c-.039-.107-.09-.285-.155-.533s-.12-.468-.156-.64-.093-.451-.167-.824l-.721-3.515a.47.47,0,0,0-.554-.366l-3.653.746a.469.469,0,0,0-.366.556l.522,2.5a10.828,10.828,0,0,1,.276,2.054,1.426,1.426,0,0,1-.19.893c-.039.048-.158.19-.57.19a.8.8,0,0,1-.563-.161,1,1,0,0,1-.159-.661,4.484,4.484,0,0,1,.057-.611l.409-2.672a.47.47,0,0,0-.388-.535l-3.653-.6a.471.471,0,0,0-.54.39l-.547,3.416a3.036,3.036,0,0,1-.371,1.239c-.145.192-.259.192-.308.192a1.025,1.025,0,0,1-.285-.031.892.892,0,0,1-.25-.152,1.554,1.554,0,0,1-.354-.468,7.32,7.32,0,0,1-.461-1.034l-1.354-3.566a.47.47,0,0,0-.608-.272l-3.5,1.342a.47.47,0,0,0-.271.608l1.366,3.553a6.717,6.717,0,0,1,.5,2.366,3.316,3.316,0,0,1-1.33,2.825,6.034,6.034,0,0,1-3.717,1.054,5.46,5.46,0,0,1-3.3-.863,2.617,2.617,0,0,1-1.091-2.233,6.307,6.307,0,0,1,.82-2.553,16.675,16.675,0,0,1,2.308-3.377.469.469,0,0,0-.053-.667l-2.845-2.385a.47.47,0,0,0-.662.057c-2.81,3.343-4.235,6.347-4.235,8.925a7.322,7.322,0,0,0,.812,3.456,6.832,6.832,0,0,0,2.155,2.466,10.193,10.193,0,0,0,2.872,1.375,11.213,11.213,0,0,0,3.216.467,11.727,11.727,0,0,0,3.035-.4,11.376,11.376,0,0,0,2.819-1.18,7.852,7.852,0,0,0,2.333-2.126,7.676,7.676,0,0,0,1.235-2.587,5.091,5.091,0,0,0,.816.069,4.767,4.767,0,0,0,2.958-.966,5.336,5.336,0,0,0,3.13.966,4.919,4.919,0,0,0,3.454-1.27,7.721,7.721,0,0,0,4.635,1.27H428.5c.392,0,.715,0,.972-.006s.612-.022,1.065-.051a11.219,11.219,0,0,0,1.175-.13c.317-.057.691-.14,1.113-.251a5.124,5.124,0,0,0,1.142-.433,6.959,6.959,0,0,0,.94-.626,3.476,3.476,0,0,0,.839-.927,4.877,4.877,0,0,0,.5-1.182,5.393,5.393,0,0,0,.2-1.5c0-2.4-1.548-5.036-4.605-7.835a29.087,29.087,0,0,1,7.138-2.4.47.47,0,0,0,.366-.554Z" transform="translate(-393.89 -343.78)" fill="#fff"/>
        <path id="Path_594" data-name="Path 594" d="M471.06,353.192a.472.472,0,0,0-.36-.029l-3.541,1.156a.47.47,0,0,0-.3.585,16.574,16.574,0,0,1,.9,4.2c0,.411-.008.743-.024.988a2.365,2.365,0,0,1-.114.6.787.787,0,0,1-.161.314.923.923,0,0,1-.323.178,2.226,2.226,0,0,1-.609.127c-.262.02-.605.029-1.021.029h-1.486c-.027-.251-.058-.5-.093-.729-.056-.378-.149-.829-.276-1.338a11.963,11.963,0,0,0-.446-1.423,7.707,7.707,0,0,0-.7-1.351,5.628,5.628,0,0,0-1.011-1.192,4.509,4.509,0,0,0-1.392-.813,5.071,5.071,0,0,0-3.759.112,4.918,4.918,0,0,0-1.572,1.12,7.277,7.277,0,0,0-1.09,1.542,7.575,7.575,0,0,0-.675,1.775,7.732,7.732,0,0,0-.218,1.787,5.247,5.247,0,0,0,.522,2.38,4.266,4.266,0,0,0,1.417,1.65,6.577,6.577,0,0,0,1.82.863,6.984,6.984,0,0,0,1.522.271,8.846,8.846,0,0,1-1.218.715,17.793,17.793,0,0,1-3.643,1.27.468.468,0,0,0-.292.215.475.475,0,0,0-.052.359l.932,3.616a.473.473,0,0,0,.219.289.477.477,0,0,0,.236.063.463.463,0,0,0,.124-.017c.979-.268,1.867-.544,2.636-.818a19.466,19.466,0,0,0,2.311-1,11.138,11.138,0,0,0,2-1.285,8.138,8.138,0,0,0,1.51-1.648,7.2,7.2,0,0,0,.881-1.742H465.5c2.487,0,4.322-.684,5.454-2.032a7.4,7.4,0,0,0,1.464-4.875,19.64,19.64,0,0,0-1.129-5.635A.468.468,0,0,0,471.06,353.192Zm-13.512,8.027c-.047-.035-.1-.155-.1-.391a2.984,2.984,0,0,1,.335-1.539c.176-.291.357-.439.537-.439.092,0,.271.148.47.565a7.36,7.36,0,0,1,.505,1.916l-.755.008A2.145,2.145,0,0,1,457.548,361.219Z" transform="translate(-408.315 -346.084)" fill="#fff"/>
        <path id="Path_595" data-name="Path 595" d="M471.321,371.407a.471.471,0,0,0-.665,0l-2.112,2.112a.469.469,0,0,0,0,.664l2.112,2.112a.47.47,0,0,0,.665,0l2.112-2.112a.471.471,0,0,0,0-.664Z" transform="translate(-412.152 -350.545)" fill="#fff"/>
        <path id="Path_596" data-name="Path 596" d="M504.78,379.7a.47.47,0,0,0-.665,0l-1.724,1.723-1.724-1.723a.469.469,0,0,0-.664,0l-2.112,2.112a.471.471,0,0,0,0,.665L500,384.586a.47.47,0,0,0,.664,0l1.724-1.724,1.724,1.724a.471.471,0,0,0,.665,0l2.112-2.112a.471.471,0,0,0,0-.665Z" transform="translate(-419.34 -352.586)" fill="#fff"/>
        <path id="Path_597" data-name="Path 597" d="M507.713,362.35h0a5.04,5.04,0,0,0-1.363-.858,7.973,7.973,0,0,0-1.343-.468,11.269,11.269,0,0,0-1.2-.207,5.826,5.826,0,0,1-1.757-.359c-.144-.082-.166-.382-.166-.553a1.51,1.51,0,0,1,.551-1.145,2.294,2.294,0,0,1,1.625-.522,7.542,7.542,0,0,1,2.8.828.47.47,0,0,0,.631-.254l1.379-3.466a.469.469,0,0,0-.249-.6c-.569-.248-1.034-.441-1.38-.574a10.265,10.265,0,0,0-1.414-.4,7.611,7.611,0,0,0-5.169.606,6.4,6.4,0,0,0-2.5,2.271,5.964,5.964,0,0,0-.937,3.26c0,3.186,2.029,5.052,6.026,5.547a11.133,11.133,0,0,1,1.2.2,1.909,1.909,0,0,1-.872,1.347,4.784,4.784,0,0,1-2.85.7,6.864,6.864,0,0,1-3.9-.89,2.419,2.419,0,0,1-1.187-2.032,18.915,18.915,0,0,1,1.072-5.411.475.475,0,0,0-.031-.359.47.47,0,0,0-.277-.232l-3.553-1.118a.469.469,0,0,0-.588.3,23.117,23.117,0,0,0-1.29,6.816,6.941,6.941,0,0,0,.541,2.751A6.431,6.431,0,0,0,493,369.687a8.814,8.814,0,0,0,2.179,1.491,11.168,11.168,0,0,0,2.639.895,14.282,14.282,0,0,0,2.9.289,11.383,11.383,0,0,0,2.242-.227,9.991,9.991,0,0,0,2.23-.737,8.351,8.351,0,0,0,1.956-1.251,5.779,5.779,0,0,0,1.414-1.885,5.7,5.7,0,0,0,.544-2.483,4.874,4.874,0,0,0-.4-2.013A4.21,4.21,0,0,0,507.713,362.35Z" transform="translate(-417.668 -346.189)" fill="#fff"/>
        <path id="Path_598" data-name="Path 598" d="M545.3,356.356l-8-3.864h0a5.931,5.931,0,0,0-5.114-.3,4.67,4.67,0,0,0-1.518,1.115,6.693,6.693,0,0,0-.99,1.543,9.538,9.538,0,0,0-.613,1.614c-.128.478-.24.994-.332,1.533a.47.47,0,0,0,.387.543l3.677.6a.469.469,0,0,0,.539-.385,9.689,9.689,0,0,1,.249-1.114,4.828,4.828,0,0,1,.262-.727,1.478,1.478,0,0,1,.233-.358.75.75,0,0,1,.14-.128.141.141,0,0,1,.057-.014,2.365,2.365,0,0,1,.988.289l2.951,1.422-.452.26a14.827,14.827,0,0,1-3.7,1.566A38.071,38.071,0,0,1,526.766,361c-.027-.251-.058-.5-.093-.729-.056-.378-.149-.829-.276-1.338a11.821,11.821,0,0,0-.446-1.423,7.71,7.71,0,0,0-.7-1.351,5.649,5.649,0,0,0-1.01-1.192,4.526,4.526,0,0,0-1.392-.813,5.073,5.073,0,0,0-3.76.112,4.926,4.926,0,0,0-1.572,1.12,7.3,7.3,0,0,0-1.09,1.542,7.574,7.574,0,0,0-.675,1.775,7.691,7.691,0,0,0-.219,1.787,5.256,5.256,0,0,0,.522,2.38,4.267,4.267,0,0,0,1.417,1.65,6.586,6.586,0,0,0,1.82.863,6.984,6.984,0,0,0,1.522.271,8.847,8.847,0,0,1-1.218.715,17.789,17.789,0,0,1-3.642,1.27.468.468,0,0,0-.344.574l.932,3.616a.47.47,0,0,0,.219.289.475.475,0,0,0,.236.063.46.46,0,0,0,.124-.017c.979-.268,1.867-.544,2.636-.818a19.417,19.417,0,0,0,2.311-1,11.114,11.114,0,0,0,2-1.285,8.138,8.138,0,0,0,1.51-1.648,7.23,7.23,0,0,0,.882-1.742h.3a39.681,39.681,0,0,0,4.557-.565c.57-.091,1.062-.17,1.389-.213a19.191,19.191,0,0,0,3.249-.7,24.006,24.006,0,0,0,2.471-.92,19.465,19.465,0,0,0,2.073-1.08,11.59,11.59,0,0,1,2.084-.968,20.25,20.25,0,0,1,2.6-.679.47.47,0,0,0,.378-.461v-3.305A.469.469,0,0,0,545.3,356.356Zm-25,4.519c-.047-.035-.1-.155-.1-.391a2.992,2.992,0,0,1,.335-1.539c.177-.291.357-.439.537-.439.092,0,.271.148.47.565a7.334,7.334,0,0,1,.505,1.916l-.754.008A2.151,2.151,0,0,1,520.3,360.875Z" transform="translate(-423.667 -345.739)" fill="#fff"/>
        <path id="Path_599" data-name="Path 599" d="M544.469,376.728a.47.47,0,0,0-.665,0l-2.112,2.112a.47.47,0,0,0,0,.665l2.112,2.112a.471.471,0,0,0,.665,0l2.112-2.112a.47.47,0,0,0,0-.665Z" transform="translate(-430.072 -351.855)" fill="#fff"/>
        <path id="Path_600" data-name="Path 600" d="M545.854,370.494a.469.469,0,0,0-.664,0l-1.724,1.723-1.724-1.723a.469.469,0,0,0-.664,0l-2.112,2.112a.471.471,0,0,0,0,.665l2.112,2.112a.47.47,0,0,0,.664,0l1.724-1.724,1.724,1.724a.47.47,0,0,0,.664,0l2.112-2.112a.471.471,0,0,0,0-.665Z" transform="translate(-429.401 -350.321)" fill="#fff"/>
      </g>
    </g>
  </g>
</svg>
