<?xml version="1.0" encoding="utf-8"?>
<!-- Generator: Adobe Illustrator 27.1.1, SVG Export Plug-In . SVG Version: 6.00 Build 0)  -->
<svg version="1.1" id="Layer_1" xmlns="http://www.w3.org/2000/svg" xmlns:xlink="http://www.w3.org/1999/xlink" x="0px" y="0px"
	 viewBox="0 0 180 130" style="enable-background:new 0 0 180 130;" xml:space="preserve">
<style type="text/css">
	.st0{fill:#1CEBBC;fill-opacity:5.000000e-02;}
	.st1{fill:#FFFFFF;}
	.st2{fill:none;stroke:#1EE4BD;stroke-width:0.5;}
	.st3{fill:#1CEBBC;}
	.st4{fill:#FFFFFF;stroke:#5F45EA;stroke-width:0.5;}
	.st5{fill:#5F45EA;}
	.st6{fill:url(#SVGID_1_);stroke:url(#SVGID_00000059296253389585790750000011387514035805167507_);}
	.st7{fill:none;stroke:#FFFFFF;stroke-width:0.75;stroke-miterlimit:10;}
</style>
<g>
	<path class="st0" d="M24.6,63.2c6.2-7.8,9.3-14.8,10.6-28.6c0.1-2.2,0.4-4.3,0.9-6.5c1.3-4.2,3.5-2.8,6.1-11.1S51.1,5,63,7.3
		S76.7,2.7,90.8,5s8.4,7.4,23.4,8.3s28.3-0.9,24.3,21.2s11,15.2,5.3,34.7s7.5,15.2,0,27.7s-9.3,10.2-15.9,23.1
		c-6.6,12.9-22.5-1.8-34.9,3.7s-22.1,9.7-26,0S54.6,98.3,36.9,91.8S18.4,71,24.6,63.2z"/>
	
		<image style="overflow:visible;opacity:0.71;enable-background:new    ;" width="140" height="153" xlink:href="3B91001D996109C5.png"  transform="matrix(1 0 0 1 25.615 -12.005)">
	</image>
	<path class="st1" d="M71.7,28.3h41.7c1.9,0,3.5,1.6,3.5,3.5v55.6c0,1.9-1.6,3.5-3.5,3.5H71.7c-1.9,0-3.5-1.6-3.5-3.5V31.8
		C68.2,29.9,69.7,28.3,71.7,28.3z"/>
	<path class="st1" d="M72,28.8h41c1.9,0,3.4,1.5,3.4,3.4c0,0,0,0,0,0v54.9c0,1.9-1.5,3.4-3.4,3.4c0,0,0,0,0,0H72
		c-1.9,0-3.4-1.5-3.4-3.4V32.2C68.6,30.3,70.1,28.8,72,28.8z"/>
	<path class="st2" d="M71.6,28.8h41.7c1.7,0,3,1.4,3,3v55.6c0,1.7-1.4,3-3,3H71.6c-1.7,0-3-1.4-3-3V31.8
		C68.6,30.1,70,28.8,71.6,28.8z"/>
	<path class="st1" d="M68.2,31.8c0-1.9,1.5-3.5,3.4-3.5h41.7c1.9,0,3.5,1.6,3.5,3.5v0v2.8H68.2V31.8z"/>
	<path class="st2" d="M68.6,31.8c0-1.7,1.3-3,3-3c0,0,0,0,0.1,0h41.7c1.7,0,3,1.3,3,3v2.4H68.6V31.8z"/>
	<circle class="st3" cx="72.5" cy="31.7" r="0.8"/>
	<circle class="st3" cx="75.5" cy="31.7" r="0.8"/>
	<circle class="st3" cx="78.5" cy="31.7" r="0.8"/>
	
		<image style="overflow:visible;opacity:0.71;enable-background:new    ;" width="124" height="131" xlink:href="3B91001D996109C7.png"  transform="matrix(1 0 0 1 9.615 21.995)">
	</image>
	<path class="st4" d="M84.7,80.5c-0.1,5.4-2.6,10.6-6.9,13.9l-9.2,7.5l-9.2-7.4c-4.3-3.4-6.8-8.5-6.9-13.9V66.7l0,0
		c5-2.4,10.4-3.6,15.9-3.6h0.1c5.1,0,10.2,1.1,14.9,3.1l1.2,0.5L84.7,80.5z"/>
	<path class="st5" d="M73.6,76c-0.1-0.1-0.3-0.1-0.5,0l-5.3,6l-2.5-2.2c-0.1-0.1-0.3-0.1-0.5,0c-0.1,0.1-0.1,0.3,0,0.4l2.8,2.5
		c0.1,0.1,0.2,0.1,0.2,0.1l0,0c0.1,0,0.2,0,0.2-0.1l5.6-6.2C73.8,76.3,73.8,76.1,73.6,76C73.6,76,73.6,76,73.6,76z"/>
	
		<linearGradient id="SVGID_1_" gradientUnits="userSpaceOnUse" x1="-667.8452" y1="-2437.3477" x2="-667.2452" y2="-2437.3477" gradientTransform="matrix(36 0 0 36 24148 87805)">
		<stop  offset="0" style="stop-color:#3692D0"/>
		<stop  offset="1" style="stop-color:#1EE4BD"/>
	</linearGradient>
	
		<linearGradient id="SVGID_00000116205084760206215020000000767450266841628860_" gradientUnits="userSpaceOnUse" x1="105.155" y1="71.515" x2="127.755" y2="71.515" gradientTransform="matrix(1 0 0 -1 0 132)">
		<stop  offset="0" style="stop-color:#3692D0"/>
		<stop  offset="1" style="stop-color:#1EE4BD"/>
	</linearGradient>
	
		<circle style="fill:url(#SVGID_1_);stroke:url(#SVGID_00000116205084760206215020000000767450266841628860_);" cx="116.5" cy="60.5" r="10.8"/>
	<path class="st1" d="M122.6,62c0-0.2-0.2-0.3-0.4-0.3c-0.2,0-0.5,0-0.7,0c-0.3,0-0.5-0.1-0.7-0.2c-0.3-0.1-0.6-0.2-0.8-0.3
		c0-0.2,0.1-0.4,0.1-0.7c0.1-0.1,0.3-0.2,0.3-0.3c0.5-0.3,1-0.4,1.6-0.3c0.3,0.1,0.4-0.2,0.3-0.5s-0.3-0.3-0.6-0.1
		c-0.3,0.2-0.6,0.3-1,0.3c-0.2,0-0.4,0-0.5,0h-0.2c0-0.2-0.1-0.4-0.2-0.6c0.2-0.1,0.4-0.2,0.6-0.3c0.2-0.1,0.3-0.1,0.5-0.1
		c0.1,0,0.3,0,0.4,0c0.1,0,0.2,0,0.3-0.1c0.1-0.1,0.1-0.3,0-0.4c0,0,0-0.1,0-0.1c-0.1-0.1-0.2-0.4-0.4-0.3S121,57.9,121,58
		c-0.1,0.1-0.2,0.2-0.3,0.3c-0.3,0.3-0.6,0.5-1,0.6c-0.1-0.3-0.3-0.5-0.5-0.7c0,0,0-0.1,0.1-0.2c0.2-0.3,0.3-0.6,0.6-0.9
		c0.1-0.1,0.3-0.3,0.4-0.4c0.2-0.1,0.7-0.2,0.6-0.5s-0.3-0.4-0.5-0.3s-0.2,0.3-0.3,0.5c-0.1,0.3-0.3,0.5-0.6,0.7
		c-0.2,0.2-0.5,0.4-0.8,0.5c-0.3-0.2-0.6-0.4-1-0.5c0-0.1,0-0.2,0-0.3c0-0.3,0.2-0.6,0.4-0.8c0.3-0.3-0.1-0.5-0.3-0.5
		s-0.2,0.4-0.2,0.5c0,0.3-0.1,0.5-0.3,0.8c-0.1,0.1-0.2,0.1-0.3,0c0,0-0.1-0.1-0.1-0.1c-0.1-0.4-0.1-0.9-0.1-1.4
		c0-0.3,0.1-0.5,0.2-0.8c0.1-0.1,0.1-0.3,0.1-0.5c0-0.1-0.1-0.1-0.1-0.2c-0.2-0.1-0.4,0-0.5,0.1c0,0,0,0.1,0,0.1c0,0.1,0,0.3,0,0.5
		c0.1,0.4,0.1,0.8,0,1.1c-0.1,0.3-0.1,0.9-0.4,1.1l-0.3,0.1c-0.7,0-1-1.2-0.8-1.7c0-0.1-0.1-0.3-0.1-0.3c-0.1,0-0.3,0-0.4,0.1
		c-0.1,0,0,0.3,0,0.3c0.6,0.7,0.6,2-0.4,2.3c-0.4,0.1-0.8,0-1.1-0.2c-0.2-0.1-0.3-0.2-0.4-0.3c-0.1-0.2-0.3-0.5-0.6-0.4
		s-0.1,0.6,0.2,0.6c0.2,0,0.4,0.1,0.6,0.2c0.3,0.2,0.6,0.5,0.9,0.8c0,0.1,0.1,0.1,0.1,0.2c0,0.1-0.1,0.1-0.1,0.2c-0.1,0-0.1,0-0.2,0
		c-0.4,0-0.8-0.1-1.1-0.2c-0.2,0-0.5-0.1-0.7-0.2c-0.2-0.1-0.4-0.4-0.6-0.3c-0.2,0.1-0.4,0.3-0.4,0.5c0,0.2,0.2,0.3,0.4,0.3
		c0.3,0,0.5,0,0.8,0c0.3,0,0.5,0.1,0.7,0.2c0.3,0.1,0.6,0.2,0.8,0.4l0,0c0,0.2-0.1,0.4-0.1,0.5c-0.1,0.1-0.3,0.2-0.4,0.3
		c-0.5,0.3-1,0.4-1.6,0.2c-0.3-0.1-0.4,0.2-0.3,0.5s0.3,0.3,0.6,0.1c0.3-0.2,0.6-0.3,1-0.3c0.2,0,0.4,0,0.6,0c0.1,0,0.1,0,0.2,0
		c0,0.2,0.1,0.4,0.1,0.5c-0.2,0.1-0.4,0.3-0.6,0.3c-0.2,0.1-0.3,0.1-0.5,0.1c-0.1,0-0.3,0-0.4,0c-0.1,0-0.2,0-0.3,0.1
		c-0.1,0.1-0.1,0.3,0,0.4c0,0,0,0.1,0,0.1c0.1,0.1,0.2,0.4,0.4,0.4s0.2-0.1,0.3-0.2c0.1-0.1,0.2-0.2,0.3-0.3
		c0.3-0.3,0.7-0.5,1.1-0.5c0.1,0.2,0.3,0.5,0.4,0.7c0,0.1-0.1,0.1-0.1,0.2c-0.2,0.3-0.4,0.6-0.6,0.8c-0.1,0.2-0.3,0.3-0.5,0.4
		c-0.1,0.1-0.7,0.2-0.6,0.5c0.1,0.3,0.3,0.4,0.6,0.3s0.2-0.3,0.3-0.5c0.2-0.2,0.3-0.5,0.6-0.7c0.3-0.2,0.6-0.4,0.9-0.5
		c0.3,0.2,0.6,0.4,0.9,0.5c0,0.1,0,0.2,0,0.3c0,0.3-0.2,0.6-0.4,0.7c-0.3,0.2,0.1,0.5,0.3,0.5c0.3,0,0.2-0.4,0.2-0.5
		c0-0.3,0.1-0.5,0.3-0.7c0.1-0.1,0.2-0.1,0.3,0c0,0,0.1,0.1,0.1,0.1c0.1,0.4,0.1,0.9,0,1.4c0,0.3-0.1,0.5-0.2,0.8
		c-0.1,0.2-0.2,0.3-0.1,0.4c0,0.1,0.1,0.1,0.1,0.2c0.2,0.1,0.4,0.1,0.5-0.1c0,0,0-0.1,0.1-0.1c0-0.2,0-0.3,0-0.5c0-0.3,0-0.7,0.1-1
		c0.1-0.3,0.1-0.9,0.5-1.1l0.3-0.1c0.7,0.1,0.9,1.2,0.8,1.7c0,0.1,0,0.2,0.1,0.3c0.1,0,0.3,0,0.4-0.1c0.1,0,0.1-0.3,0-0.3
		c-0.3-0.4-0.4-0.9-0.4-1.4c0-0.2,0-0.4,0.1-0.6c0.5-0.6,1.3-0.8,2-0.4c0.2,0.1,0.3,0.2,0.4,0.3c0.2,0.2,0.3,0.5,0.6,0.3
		c0.3-0.2,0.1-0.6-0.3-0.6c-0.2,0-0.4-0.1-0.6-0.2c-0.4-0.2-0.7-0.5-1-0.8c0,0,0-0.1-0.1-0.1c0-0.1,0.1-0.2,0.1-0.3c0,0,0.1,0,0.1,0
		c0.4,0,0.8,0,1.1,0.1c0.2,0,0.5,0.1,0.7,0.2c0.2,0.1,0.4,0.4,0.7,0.3C122.4,62.4,122.6,62.2,122.6,62z"/>
	<line class="st7" x1="124.9" y1="53.8" x2="108.1" y2="67.2"/>
</g>
</svg>
