<svg xmlns="http://www.w3.org/2000/svg" width="20" height="24" viewBox="0 0 20 24">
  <g id="Group_397" data-name="Group 397" transform="translate(-134.148 -850)">
    <g id="Group_143" data-name="Group 143" transform="translate(2.72 620.358)">
      <path id="Path_154" data-name="Path 154" d="M261.012,420.7a6.023,6.023,0,0,1-1.009-.456,2.243,2.243,0,0,1-.858-2.464,2.3,2.3,0,0,1,1.972-1.662,2.276,2.276,0,0,1,2.311,1.3.333.333,0,0,0,.363.233c1.22-.011,2.44,0,3.661-.007a2.3,2.3,0,0,0,2.211-1.532c.007-.02.009-.043.006-.027-.29,0-.585.022-.875,0a2.232,2.232,0,0,1-2.031-2.1c-.036-1.144-.037-2.291,0-3.435a2.246,2.246,0,0,1,2.181-2.1c.531-.013,1.063-.008,1.594,0a.762.762,0,0,1,.8.805c0,.786,0,1.572,0,2.358,0,1.228,0,2.456,0,3.683a3.824,3.824,0,0,1-3.15,3.821,4.347,4.347,0,0,1-.8.066q-1.819.01-3.638,0a.274.274,0,0,0-.3.182,2.237,2.237,0,0,1-1.635,1.307,1.121,1.121,0,0,0-.124.043Zm8.8-10.738c-.265,0-.5,0-.741,0a.754.754,0,0,0-.79.791q-.007,1.482,0,2.964a.762.762,0,0,0,.761.778.773.773,0,0,0,.767-.778c.006-.674,0-1.347,0-2.021C269.815,411.132,269.815,410.564,269.815,409.965Zm-9.209,8.427a.766.766,0,0,0,1.531.033.766.766,0,1,0-1.531-.033Z" transform="translate(-119.915 -167.06)" fill="#25e0b1"/>
      <path id="Path_155" data-name="Path 155" d="M143.219,229.642a10.055,10.055,0,0,1,10.127,8.194,1.373,1.373,0,0,1,.018.508.735.735,0,0,1-.788.565.759.759,0,0,1-.714-.662,8.427,8.427,0,0,0-7.655-7.035,8.4,8.4,0,0,0-8.845,6.2c-.069.252-.116.51-.172.765a.793.793,0,0,1-.928.647.765.765,0,0,1-.585-.94,9.854,9.854,0,0,1,7.079-7.846A8.673,8.673,0,0,1,143.219,229.642Z" transform="translate(-2.097)" fill="#25e0b1"/>
      <path id="Path_156" data-name="Path 156" d="M131.431,411.591q0-1.134,0-2.269a.771.771,0,0,1,.857-.863,14.967,14.967,0,0,1,1.859.051,2.181,2.181,0,0,1,1.865,2.085c.034,1.122.038,2.246,0,3.368a2.264,2.264,0,0,1-2.312,2.161,2.3,2.3,0,0,1-2.266-2.243c-.016-.763,0-1.527,0-2.291ZM133,410c-.018.02-.028.026-.028.031,0,1.264-.014,2.528,0,3.791a.761.761,0,0,0,1.519-.014q.012-1.548,0-3.1a.717.717,0,0,0-.634-.706A8.3,8.3,0,0,0,133,410Z" transform="translate(0 -167.383)" fill="#25e0b1"/>
      <path id="Path_157" data-name="Path 157" d="M240.408,269.928a.771.771,0,0,1-1.122.706,6.619,6.619,0,0,0-1.779-.6,6.117,6.117,0,0,0-3.677.49c-.061.028-.121.058-.183.085a.76.76,0,1,1-.652-1.374,7.336,7.336,0,0,1,2.144-.7,7.782,7.782,0,0,1,4.761.688A.809.809,0,0,1,240.408,269.928Z" transform="translate(-95.033 -35.456)" fill="#25e0b1"/>
    </g>
    <g id="Ellipse_36" data-name="Ellipse 36" transform="translate(141 868)" fill="#0bbf42" stroke="#010037" stroke-width="1">
      <circle cx="3" cy="3" r="3" stroke="none"/>
      <circle cx="3" cy="3" r="2.5" fill="none"/>
    </g>
  </g>
</svg>
